<svg width="36" height="36" viewBox="0 0 36 36" fill="none" xmlns="http://www.w3.org/2000/svg">
<circle cx="18" cy="18" r="18" fill="#8F67FF" fill-opacity="0.47"/>
<path d="M19.3366 22.0908C19.1322 22.1099 18.9269 22.0637 18.7503 21.959C18.6866 21.8936 18.6384 21.8147 18.6093 21.7281C18.5801 21.6416 18.5709 21.5496 18.5821 21.459C18.5869 21.3062 18.6051 21.1541 18.6366 21.0045C18.6671 20.8328 18.7066 20.6629 18.7548 20.4954L19.2912 18.6499C19.3465 18.4677 19.383 18.2804 19.4003 18.0908C19.4003 17.8863 19.4275 17.7453 19.4275 17.6635C19.4332 17.4836 19.3981 17.3047 19.3249 17.1402C19.2517 16.9757 19.1423 16.8298 19.0048 16.7135C18.6623 16.4506 18.2357 16.3213 17.8048 16.3499C17.496 16.3545 17.1896 16.4051 16.8957 16.4999C16.5745 16.5999 16.2366 16.7196 15.8821 16.859L15.7275 17.459C15.8321 17.4226 15.9594 17.3817 16.1048 17.3363C16.2435 17.2952 16.3874 17.2737 16.5321 17.2726C16.735 17.2506 16.9393 17.3005 17.1093 17.4135C17.1665 17.4817 17.2092 17.5608 17.235 17.6459C17.2608 17.7311 17.2691 17.8206 17.2593 17.909C17.2588 18.0618 17.2421 18.2142 17.2093 18.3635C17.1775 18.5226 17.1366 18.6908 17.0866 18.8681L16.5457 20.7226C16.5021 20.895 16.4672 21.0694 16.4412 21.2453C16.4199 21.3959 16.4093 21.5478 16.4093 21.6999C16.4082 21.881 16.4486 22.0599 16.5274 22.223C16.6062 22.3861 16.7213 22.529 16.8639 22.6407C17.2117 22.9078 17.6443 23.0402 18.082 23.0135C18.3903 23.0198 18.6974 22.9753 18.9911 22.8816C19.2487 22.7938 19.5927 22.668 20.023 22.5044L20.1684 21.9316C20.0519 21.98 19.9318 22.0195 19.8093 22.0498C19.6544 22.0852 19.4953 22.099 19.3366 22.0908ZM19.9048 13.3408C19.6574 13.1136 19.3315 12.9914 18.9957 12.9999C18.6601 12.9924 18.3345 13.1145 18.0866 13.3408C17.6322 13.7326 17.5815 14.4186 17.9733 14.873C18.0082 14.9135 18.0461 14.9514 18.0866 14.9863C18.6043 15.4493 19.3871 15.4493 19.9048 14.9863C20.3591 14.5906 20.4068 13.9016 20.0111 13.4472C19.9782 13.4093 19.9427 13.3738 19.9048 13.3408Z" fill="black"/>
<path d="M18 8C12.4771 8 8 12.4771 8 18C8 23.5229 12.4771 28 18 28C23.5229 28 28 23.5229 28 18C28 12.4771 23.5229 8 18 8ZM18 27.0909C12.9792 27.0909 8.9091 23.0208 8.9091 18C8.9091 12.9792 12.9792 8.9091 18 8.9091C23.0208 8.9091 27.0909 12.9792 27.0909 18C27.0909 23.0208 23.0208 27.0909 18 27.0909Z" fill="black"/>
</svg>
