<svg width="159" height="49" viewBox="0 0 159 49" fill="none" xmlns="http://www.w3.org/2000/svg">
<g filter="url(#filter0_i_2111_3126)">
<rect width="159" height="49" rx="24.5" fill="#4C43CD"/>
<rect width="159" height="49" rx="24.5" fill="url(#paint0_radial_2111_3126)" fill-opacity="0.7"/>
<rect width="159" height="49" rx="24.5" fill="url(#paint1_radial_2111_3126)"/>
<g filter="url(#filter1_d_2111_3126)">
<path d="M44.978 31.168C44.2407 31.168 43.5593 31.0373 42.934 30.776C42.3087 30.5053 41.7673 30.1273 41.31 29.642C40.8527 29.1567 40.4933 28.5873 40.232 27.934C39.98 27.2807 39.854 26.5667 39.854 25.792C39.854 25.008 39.98 24.2893 40.232 23.636C40.484 22.9827 40.8387 22.4133 41.296 21.928C41.7533 21.4427 42.2947 21.0693 42.92 20.808C43.5453 20.5373 44.2267 20.402 44.964 20.402C45.6827 20.402 46.3267 20.528 46.896 20.78C47.4747 21.032 47.96 21.3587 48.352 21.76C48.7533 22.1613 49.038 22.5907 49.206 23.048L47.974 23.65C47.7313 23.0433 47.3533 22.5627 46.84 22.208C46.3267 21.8533 45.7013 21.676 44.964 21.676C44.236 21.676 43.5873 21.8487 43.018 22.194C42.458 22.5393 42.0193 23.02 41.702 23.636C41.3847 24.252 41.226 24.9707 41.226 25.792C41.226 26.604 41.3847 27.318 41.702 27.934C42.0287 28.55 42.472 29.0307 43.032 29.376C43.6013 29.7213 44.25 29.894 44.978 29.894C45.6127 29.894 46.1867 29.7587 46.7 29.488C47.2133 29.2173 47.6193 28.844 47.918 28.368C48.2167 27.892 48.366 27.3413 48.366 26.716V26.072L48.996 26.66H44.964V25.47H49.752V26.394C49.752 27.122 49.626 27.78 49.374 28.368C49.122 28.956 48.7767 29.46 48.338 29.88C47.8993 30.2907 47.3907 30.608 46.812 30.832C46.2333 31.056 45.622 31.168 44.978 31.168ZM54.9234 31.168C54.1954 31.168 53.5467 30.9953 52.9774 30.65C52.408 30.3047 51.96 29.8333 51.6334 29.236C51.3067 28.6293 51.1434 27.9527 51.1434 27.206C51.1434 26.45 51.302 25.778 51.6194 25.19C51.946 24.602 52.3847 24.14 52.9354 23.804C53.4954 23.4587 54.1207 23.286 54.8114 23.286C55.3714 23.286 55.866 23.3887 56.2954 23.594C56.734 23.79 57.1027 24.0607 57.4014 24.406C57.7094 24.742 57.9427 25.1293 58.1014 25.568C58.2694 25.9973 58.3534 26.4453 58.3534 26.912C58.3534 27.0147 58.344 27.1313 58.3254 27.262C58.316 27.3833 58.302 27.5 58.2834 27.612H52.0954V26.492H57.5274L56.9114 26.996C56.9954 26.5107 56.9487 26.0767 56.7714 25.694C56.594 25.3113 56.3327 25.008 55.9874 24.784C55.642 24.56 55.25 24.448 54.8114 24.448C54.3727 24.448 53.9714 24.56 53.6074 24.784C53.2434 25.008 52.9587 25.33 52.7534 25.75C52.5574 26.1607 52.478 26.6507 52.5154 27.22C52.478 27.7707 52.562 28.256 52.7674 28.676C52.982 29.0867 53.2807 29.4087 53.6634 29.642C54.0554 29.866 54.48 29.978 54.9374 29.978C55.4414 29.978 55.866 29.8613 56.2114 29.628C56.5567 29.3947 56.8367 29.096 57.0514 28.732L58.1434 29.292C57.994 29.6373 57.7607 29.9547 57.4434 30.244C57.1354 30.524 56.7667 30.748 56.3374 30.916C55.9174 31.084 55.446 31.168 54.9234 31.168ZM63.117 31.084C62.3796 31.084 61.8103 30.874 61.409 30.454C61.017 30.034 60.821 29.4413 60.821 28.676V24.7H59.449V23.454H59.729C60.065 23.454 60.331 23.3513 60.527 23.146C60.723 22.9407 60.821 22.67 60.821 22.334V21.718H62.123V23.454H63.817V24.7H62.123V28.634C62.123 28.886 62.1603 29.1053 62.235 29.292C62.319 29.4787 62.4543 29.628 62.641 29.74C62.8276 29.8427 63.075 29.894 63.383 29.894C63.4483 29.894 63.5276 29.8893 63.621 29.88C63.7236 29.8707 63.817 29.8613 63.901 29.852V31C63.7796 31.028 63.6443 31.0467 63.495 31.056C63.3456 31.0747 63.2196 31.084 63.117 31.084ZM74.1796 31.168C73.5169 31.168 72.9103 31.0467 72.3596 30.804C71.8089 30.552 71.3423 30.2113 70.9596 29.782C70.5769 29.3527 70.3016 28.872 70.1336 28.34L71.3236 27.85C71.5756 28.522 71.9489 29.04 72.4436 29.404C72.9476 29.7587 73.5356 29.936 74.2076 29.936C74.6183 29.936 74.9776 29.8707 75.2856 29.74C75.5936 29.6093 75.8316 29.4273 75.9996 29.194C76.1769 28.9513 76.2656 28.6713 76.2656 28.354C76.2656 27.9153 76.1396 27.57 75.8876 27.318C75.6449 27.0567 75.2856 26.8607 74.8096 26.73L72.8916 26.142C72.1356 25.9087 71.5569 25.54 71.1556 25.036C70.7543 24.532 70.5536 23.9533 70.5536 23.3C70.5536 22.7307 70.6889 22.2313 70.9596 21.802C71.2396 21.3633 71.6223 21.0227 72.1076 20.78C72.6023 20.528 73.1623 20.402 73.7876 20.402C74.4129 20.402 74.9776 20.514 75.4816 20.738C75.9949 20.962 76.4289 21.2653 76.7836 21.648C77.1383 22.0213 77.3996 22.4507 77.5676 22.936L76.3916 23.426C76.1676 22.838 75.8316 22.3947 75.3836 22.096C74.9356 21.788 74.4083 21.634 73.8016 21.634C73.4283 21.634 73.0969 21.6993 72.8076 21.83C72.5276 21.9513 72.3083 22.1333 72.1496 22.376C72.0003 22.6093 71.9256 22.8893 71.9256 23.216C71.9256 23.5987 72.0469 23.9393 72.2896 24.238C72.5323 24.5367 72.9009 24.7653 73.3956 24.924L75.1456 25.442C75.9669 25.694 76.5876 26.0533 77.0076 26.52C77.4276 26.9867 77.6376 27.5653 77.6376 28.256C77.6376 28.8253 77.4883 29.3293 77.1896 29.768C76.9003 30.2067 76.4943 30.552 75.9716 30.804C75.4583 31.0467 74.8609 31.168 74.1796 31.168ZM82.5584 31.084C81.821 31.084 81.2517 30.874 80.8504 30.454C80.4584 30.034 80.2624 29.4413 80.2624 28.676V24.7H78.8904V23.454H79.1704C79.5064 23.454 79.7724 23.3513 79.9684 23.146C80.1644 22.9407 80.2624 22.67 80.2624 22.334V21.718H81.5644V23.454H83.2584V24.7H81.5644V28.634C81.5644 28.886 81.6017 29.1053 81.6764 29.292C81.7604 29.4787 81.8957 29.628 82.0824 29.74C82.269 29.8427 82.5164 29.894 82.8244 29.894C82.8897 29.894 82.969 29.8893 83.0624 29.88C83.165 29.8707 83.2584 29.8613 83.3424 29.852V31C83.221 31.028 83.0857 31.0467 82.9364 31.056C82.787 31.0747 82.661 31.084 82.5584 31.084ZM87.1595 31.168C86.6648 31.168 86.2261 31.0793 85.8435 30.902C85.4701 30.7153 85.1761 30.4633 84.9615 30.146C84.7468 29.8193 84.6395 29.446 84.6395 29.026C84.6395 28.6247 84.7235 28.2653 84.8915 27.948C85.0688 27.6213 85.3395 27.346 85.7035 27.122C86.0768 26.898 86.5435 26.7393 87.1035 26.646L89.9035 26.184V27.276L87.3975 27.696C86.9121 27.78 86.5575 27.934 86.3335 28.158C86.1188 28.382 86.0115 28.6573 86.0115 28.984C86.0115 29.292 86.1328 29.5487 86.3755 29.754C86.6275 29.9593 86.9401 30.062 87.3135 30.062C87.7895 30.062 88.2001 29.964 88.5455 29.768C88.9001 29.5627 89.1755 29.2873 89.3715 28.942C89.5768 28.5967 89.6795 28.214 89.6795 27.794V25.876C89.6795 25.4653 89.5255 25.134 89.2175 24.882C88.9188 24.6207 88.5221 24.49 88.0275 24.49C87.5981 24.49 87.2155 24.602 86.8795 24.826C86.5528 25.0407 86.3101 25.33 86.1515 25.694L85.0175 25.106C85.1575 24.7607 85.3815 24.4527 85.6895 24.182C85.9975 23.902 86.3568 23.6827 86.7675 23.524C87.1781 23.3653 87.6075 23.286 88.0555 23.286C88.6341 23.286 89.1428 23.398 89.5815 23.622C90.0201 23.8367 90.3608 24.14 90.6035 24.532C90.8555 24.9147 90.9815 25.3627 90.9815 25.876V31H89.7075V29.572L89.9455 29.656C89.7868 29.9547 89.5721 30.216 89.3015 30.44C89.0308 30.664 88.7135 30.8413 88.3495 30.972C87.9855 31.1027 87.5888 31.168 87.1595 31.168ZM93.0002 31V23.454H94.2742V24.84L94.1342 24.644C94.3115 24.2147 94.5822 23.8973 94.9462 23.692C95.3102 23.4773 95.7535 23.37 96.2762 23.37H96.7382V24.602H96.0802C95.5482 24.602 95.1189 24.77 94.7922 25.106C94.4655 25.4327 94.3022 25.8993 94.3022 26.506V31H93.0002ZM101.029 31.084C100.292 31.084 99.7224 30.874 99.3211 30.454C98.9291 30.034 98.7331 29.4413 98.7331 28.676V24.7H97.3611V23.454H97.6411C97.9771 23.454 98.2431 23.3513 98.4391 23.146C98.6351 22.9407 98.7331 22.67 98.7331 22.334V21.718H100.035V23.454H101.729V24.7H100.035V28.634C100.035 28.886 100.072 29.1053 100.147 29.292C100.231 29.4787 100.366 29.628 100.553 29.74C100.74 29.8427 100.987 29.894 101.295 29.894C101.36 29.894 101.44 29.8893 101.533 29.88C101.636 29.8707 101.729 29.8613 101.813 29.852V31C101.692 31.028 101.556 31.0467 101.407 31.056C101.258 31.0747 101.132 31.084 101.029 31.084ZM106.781 31.168C106.053 31.168 105.404 30.9953 104.835 30.65C104.265 30.3047 103.817 29.8333 103.491 29.236C103.164 28.6293 103.001 27.9527 103.001 27.206C103.001 26.45 103.159 25.778 103.477 25.19C103.803 24.602 104.242 24.14 104.793 23.804C105.353 23.4587 105.978 23.286 106.669 23.286C107.229 23.286 107.723 23.3887 108.153 23.594C108.591 23.79 108.96 24.0607 109.259 24.406C109.567 24.742 109.8 25.1293 109.959 25.568C110.127 25.9973 110.211 26.4453 110.211 26.912C110.211 27.0147 110.201 27.1313 110.183 27.262C110.173 27.3833 110.159 27.5 110.141 27.612H103.953V26.492H109.385L108.769 26.996C108.853 26.5107 108.806 26.0767 108.629 25.694C108.451 25.3113 108.19 25.008 107.845 24.784C107.499 24.56 107.107 24.448 106.669 24.448C106.23 24.448 105.829 24.56 105.465 24.784C105.101 25.008 104.816 25.33 104.611 25.75C104.415 26.1607 104.335 26.6507 104.373 27.22C104.335 27.7707 104.419 28.256 104.625 28.676C104.839 29.0867 105.138 29.4087 105.521 29.642C105.913 29.866 106.337 29.978 106.795 29.978C107.299 29.978 107.723 29.8613 108.069 29.628C108.414 29.3947 108.694 29.096 108.909 28.732L110.001 29.292C109.851 29.6373 109.618 29.9547 109.301 30.244C108.993 30.524 108.624 30.748 108.195 30.916C107.775 31.084 107.303 31.168 106.781 31.168ZM115.338 31.168C114.629 31.168 113.99 30.9953 113.42 30.65C112.86 30.3047 112.417 29.8333 112.09 29.236C111.764 28.6387 111.6 27.9713 111.6 27.234C111.6 26.478 111.764 25.806 112.09 25.218C112.417 24.6207 112.86 24.1493 113.42 23.804C113.99 23.4587 114.629 23.286 115.338 23.286C115.964 23.286 116.519 23.4213 117.004 23.692C117.49 23.9533 117.872 24.308 118.152 24.756L117.942 25.078V20.402H119.258V31H117.984V29.39L118.152 29.614C117.891 30.1087 117.508 30.4913 117.004 30.762C116.51 31.0327 115.954 31.168 115.338 31.168ZM115.45 29.908C115.926 29.908 116.351 29.7913 116.724 29.558C117.098 29.3247 117.392 29.0073 117.606 28.606C117.83 28.1953 117.942 27.738 117.942 27.234C117.942 26.7207 117.83 26.2633 117.606 25.862C117.392 25.4513 117.098 25.1293 116.724 24.896C116.351 24.6627 115.926 24.546 115.45 24.546C114.984 24.546 114.559 24.6673 114.176 24.91C113.803 25.1433 113.509 25.4607 113.294 25.862C113.08 26.254 112.972 26.7113 112.972 27.234C112.972 27.738 113.08 28.1953 113.294 28.606C113.509 29.0073 113.803 29.3247 114.176 29.558C114.55 29.7913 114.974 29.908 115.45 29.908Z" fill="white" fill-opacity="0.9"/>
<path d="M44.978 31.168C44.2407 31.168 43.5593 31.0373 42.934 30.776C42.3087 30.5053 41.7673 30.1273 41.31 29.642C40.8527 29.1567 40.4933 28.5873 40.232 27.934C39.98 27.2807 39.854 26.5667 39.854 25.792C39.854 25.008 39.98 24.2893 40.232 23.636C40.484 22.9827 40.8387 22.4133 41.296 21.928C41.7533 21.4427 42.2947 21.0693 42.92 20.808C43.5453 20.5373 44.2267 20.402 44.964 20.402C45.6827 20.402 46.3267 20.528 46.896 20.78C47.4747 21.032 47.96 21.3587 48.352 21.76C48.7533 22.1613 49.038 22.5907 49.206 23.048L47.974 23.65C47.7313 23.0433 47.3533 22.5627 46.84 22.208C46.3267 21.8533 45.7013 21.676 44.964 21.676C44.236 21.676 43.5873 21.8487 43.018 22.194C42.458 22.5393 42.0193 23.02 41.702 23.636C41.3847 24.252 41.226 24.9707 41.226 25.792C41.226 26.604 41.3847 27.318 41.702 27.934C42.0287 28.55 42.472 29.0307 43.032 29.376C43.6013 29.7213 44.25 29.894 44.978 29.894C45.6127 29.894 46.1867 29.7587 46.7 29.488C47.2133 29.2173 47.6193 28.844 47.918 28.368C48.2167 27.892 48.366 27.3413 48.366 26.716V26.072L48.996 26.66H44.964V25.47H49.752V26.394C49.752 27.122 49.626 27.78 49.374 28.368C49.122 28.956 48.7767 29.46 48.338 29.88C47.8993 30.2907 47.3907 30.608 46.812 30.832C46.2333 31.056 45.622 31.168 44.978 31.168ZM54.9234 31.168C54.1954 31.168 53.5467 30.9953 52.9774 30.65C52.408 30.3047 51.96 29.8333 51.6334 29.236C51.3067 28.6293 51.1434 27.9527 51.1434 27.206C51.1434 26.45 51.302 25.778 51.6194 25.19C51.946 24.602 52.3847 24.14 52.9354 23.804C53.4954 23.4587 54.1207 23.286 54.8114 23.286C55.3714 23.286 55.866 23.3887 56.2954 23.594C56.734 23.79 57.1027 24.0607 57.4014 24.406C57.7094 24.742 57.9427 25.1293 58.1014 25.568C58.2694 25.9973 58.3534 26.4453 58.3534 26.912C58.3534 27.0147 58.344 27.1313 58.3254 27.262C58.316 27.3833 58.302 27.5 58.2834 27.612H52.0954V26.492H57.5274L56.9114 26.996C56.9954 26.5107 56.9487 26.0767 56.7714 25.694C56.594 25.3113 56.3327 25.008 55.9874 24.784C55.642 24.56 55.25 24.448 54.8114 24.448C54.3727 24.448 53.9714 24.56 53.6074 24.784C53.2434 25.008 52.9587 25.33 52.7534 25.75C52.5574 26.1607 52.478 26.6507 52.5154 27.22C52.478 27.7707 52.562 28.256 52.7674 28.676C52.982 29.0867 53.2807 29.4087 53.6634 29.642C54.0554 29.866 54.48 29.978 54.9374 29.978C55.4414 29.978 55.866 29.8613 56.2114 29.628C56.5567 29.3947 56.8367 29.096 57.0514 28.732L58.1434 29.292C57.994 29.6373 57.7607 29.9547 57.4434 30.244C57.1354 30.524 56.7667 30.748 56.3374 30.916C55.9174 31.084 55.446 31.168 54.9234 31.168ZM63.117 31.084C62.3796 31.084 61.8103 30.874 61.409 30.454C61.017 30.034 60.821 29.4413 60.821 28.676V24.7H59.449V23.454H59.729C60.065 23.454 60.331 23.3513 60.527 23.146C60.723 22.9407 60.821 22.67 60.821 22.334V21.718H62.123V23.454H63.817V24.7H62.123V28.634C62.123 28.886 62.1603 29.1053 62.235 29.292C62.319 29.4787 62.4543 29.628 62.641 29.74C62.8276 29.8427 63.075 29.894 63.383 29.894C63.4483 29.894 63.5276 29.8893 63.621 29.88C63.7236 29.8707 63.817 29.8613 63.901 29.852V31C63.7796 31.028 63.6443 31.0467 63.495 31.056C63.3456 31.0747 63.2196 31.084 63.117 31.084ZM74.1796 31.168C73.5169 31.168 72.9103 31.0467 72.3596 30.804C71.8089 30.552 71.3423 30.2113 70.9596 29.782C70.5769 29.3527 70.3016 28.872 70.1336 28.34L71.3236 27.85C71.5756 28.522 71.9489 29.04 72.4436 29.404C72.9476 29.7587 73.5356 29.936 74.2076 29.936C74.6183 29.936 74.9776 29.8707 75.2856 29.74C75.5936 29.6093 75.8316 29.4273 75.9996 29.194C76.1769 28.9513 76.2656 28.6713 76.2656 28.354C76.2656 27.9153 76.1396 27.57 75.8876 27.318C75.6449 27.0567 75.2856 26.8607 74.8096 26.73L72.8916 26.142C72.1356 25.9087 71.5569 25.54 71.1556 25.036C70.7543 24.532 70.5536 23.9533 70.5536 23.3C70.5536 22.7307 70.6889 22.2313 70.9596 21.802C71.2396 21.3633 71.6223 21.0227 72.1076 20.78C72.6023 20.528 73.1623 20.402 73.7876 20.402C74.4129 20.402 74.9776 20.514 75.4816 20.738C75.9949 20.962 76.4289 21.2653 76.7836 21.648C77.1383 22.0213 77.3996 22.4507 77.5676 22.936L76.3916 23.426C76.1676 22.838 75.8316 22.3947 75.3836 22.096C74.9356 21.788 74.4083 21.634 73.8016 21.634C73.4283 21.634 73.0969 21.6993 72.8076 21.83C72.5276 21.9513 72.3083 22.1333 72.1496 22.376C72.0003 22.6093 71.9256 22.8893 71.9256 23.216C71.9256 23.5987 72.0469 23.9393 72.2896 24.238C72.5323 24.5367 72.9009 24.7653 73.3956 24.924L75.1456 25.442C75.9669 25.694 76.5876 26.0533 77.0076 26.52C77.4276 26.9867 77.6376 27.5653 77.6376 28.256C77.6376 28.8253 77.4883 29.3293 77.1896 29.768C76.9003 30.2067 76.4943 30.552 75.9716 30.804C75.4583 31.0467 74.8609 31.168 74.1796 31.168ZM82.5584 31.084C81.821 31.084 81.2517 30.874 80.8504 30.454C80.4584 30.034 80.2624 29.4413 80.2624 28.676V24.7H78.8904V23.454H79.1704C79.5064 23.454 79.7724 23.3513 79.9684 23.146C80.1644 22.9407 80.2624 22.67 80.2624 22.334V21.718H81.5644V23.454H83.2584V24.7H81.5644V28.634C81.5644 28.886 81.6017 29.1053 81.6764 29.292C81.7604 29.4787 81.8957 29.628 82.0824 29.74C82.269 29.8427 82.5164 29.894 82.8244 29.894C82.8897 29.894 82.969 29.8893 83.0624 29.88C83.165 29.8707 83.2584 29.8613 83.3424 29.852V31C83.221 31.028 83.0857 31.0467 82.9364 31.056C82.787 31.0747 82.661 31.084 82.5584 31.084ZM87.1595 31.168C86.6648 31.168 86.2261 31.0793 85.8435 30.902C85.4701 30.7153 85.1761 30.4633 84.9615 30.146C84.7468 29.8193 84.6395 29.446 84.6395 29.026C84.6395 28.6247 84.7235 28.2653 84.8915 27.948C85.0688 27.6213 85.3395 27.346 85.7035 27.122C86.0768 26.898 86.5435 26.7393 87.1035 26.646L89.9035 26.184V27.276L87.3975 27.696C86.9121 27.78 86.5575 27.934 86.3335 28.158C86.1188 28.382 86.0115 28.6573 86.0115 28.984C86.0115 29.292 86.1328 29.5487 86.3755 29.754C86.6275 29.9593 86.9401 30.062 87.3135 30.062C87.7895 30.062 88.2001 29.964 88.5455 29.768C88.9001 29.5627 89.1755 29.2873 89.3715 28.942C89.5768 28.5967 89.6795 28.214 89.6795 27.794V25.876C89.6795 25.4653 89.5255 25.134 89.2175 24.882C88.9188 24.6207 88.5221 24.49 88.0275 24.49C87.5981 24.49 87.2155 24.602 86.8795 24.826C86.5528 25.0407 86.3101 25.33 86.1515 25.694L85.0175 25.106C85.1575 24.7607 85.3815 24.4527 85.6895 24.182C85.9975 23.902 86.3568 23.6827 86.7675 23.524C87.1781 23.3653 87.6075 23.286 88.0555 23.286C88.6341 23.286 89.1428 23.398 89.5815 23.622C90.0201 23.8367 90.3608 24.14 90.6035 24.532C90.8555 24.9147 90.9815 25.3627 90.9815 25.876V31H89.7075V29.572L89.9455 29.656C89.7868 29.9547 89.5721 30.216 89.3015 30.44C89.0308 30.664 88.7135 30.8413 88.3495 30.972C87.9855 31.1027 87.5888 31.168 87.1595 31.168ZM93.0002 31V23.454H94.2742V24.84L94.1342 24.644C94.3115 24.2147 94.5822 23.8973 94.9462 23.692C95.3102 23.4773 95.7535 23.37 96.2762 23.37H96.7382V24.602H96.0802C95.5482 24.602 95.1189 24.77 94.7922 25.106C94.4655 25.4327 94.3022 25.8993 94.3022 26.506V31H93.0002ZM101.029 31.084C100.292 31.084 99.7224 30.874 99.3211 30.454C98.9291 30.034 98.7331 29.4413 98.7331 28.676V24.7H97.3611V23.454H97.6411C97.9771 23.454 98.2431 23.3513 98.4391 23.146C98.6351 22.9407 98.7331 22.67 98.7331 22.334V21.718H100.035V23.454H101.729V24.7H100.035V28.634C100.035 28.886 100.072 29.1053 100.147 29.292C100.231 29.4787 100.366 29.628 100.553 29.74C100.74 29.8427 100.987 29.894 101.295 29.894C101.36 29.894 101.44 29.8893 101.533 29.88C101.636 29.8707 101.729 29.8613 101.813 29.852V31C101.692 31.028 101.556 31.0467 101.407 31.056C101.258 31.0747 101.132 31.084 101.029 31.084ZM106.781 31.168C106.053 31.168 105.404 30.9953 104.835 30.65C104.265 30.3047 103.817 29.8333 103.491 29.236C103.164 28.6293 103.001 27.9527 103.001 27.206C103.001 26.45 103.159 25.778 103.477 25.19C103.803 24.602 104.242 24.14 104.793 23.804C105.353 23.4587 105.978 23.286 106.669 23.286C107.229 23.286 107.723 23.3887 108.153 23.594C108.591 23.79 108.96 24.0607 109.259 24.406C109.567 24.742 109.8 25.1293 109.959 25.568C110.127 25.9973 110.211 26.4453 110.211 26.912C110.211 27.0147 110.201 27.1313 110.183 27.262C110.173 27.3833 110.159 27.5 110.141 27.612H103.953V26.492H109.385L108.769 26.996C108.853 26.5107 108.806 26.0767 108.629 25.694C108.451 25.3113 108.19 25.008 107.845 24.784C107.499 24.56 107.107 24.448 106.669 24.448C106.23 24.448 105.829 24.56 105.465 24.784C105.101 25.008 104.816 25.33 104.611 25.75C104.415 26.1607 104.335 26.6507 104.373 27.22C104.335 27.7707 104.419 28.256 104.625 28.676C104.839 29.0867 105.138 29.4087 105.521 29.642C105.913 29.866 106.337 29.978 106.795 29.978C107.299 29.978 107.723 29.8613 108.069 29.628C108.414 29.3947 108.694 29.096 108.909 28.732L110.001 29.292C109.851 29.6373 109.618 29.9547 109.301 30.244C108.993 30.524 108.624 30.748 108.195 30.916C107.775 31.084 107.303 31.168 106.781 31.168ZM115.338 31.168C114.629 31.168 113.99 30.9953 113.42 30.65C112.86 30.3047 112.417 29.8333 112.09 29.236C111.764 28.6387 111.6 27.9713 111.6 27.234C111.6 26.478 111.764 25.806 112.09 25.218C112.417 24.6207 112.86 24.1493 113.42 23.804C113.99 23.4587 114.629 23.286 115.338 23.286C115.964 23.286 116.519 23.4213 117.004 23.692C117.49 23.9533 117.872 24.308 118.152 24.756L117.942 25.078V20.402H119.258V31H117.984V29.39L118.152 29.614C117.891 30.1087 117.508 30.4913 117.004 30.762C116.51 31.0327 115.954 31.168 115.338 31.168ZM115.45 29.908C115.926 29.908 116.351 29.7913 116.724 29.558C117.098 29.3247 117.392 29.0073 117.606 28.606C117.83 28.1953 117.942 27.738 117.942 27.234C117.942 26.7207 117.83 26.2633 117.606 25.862C117.392 25.4513 117.098 25.1293 116.724 24.896C116.351 24.6627 115.926 24.546 115.45 24.546C114.984 24.546 114.559 24.6673 114.176 24.91C113.803 25.1433 113.509 25.4607 113.294 25.862C113.08 26.254 112.972 26.7113 112.972 27.234C112.972 27.738 113.08 28.1953 113.294 28.606C113.509 29.0073 113.803 29.3247 114.176 29.558C114.55 29.7913 114.974 29.908 115.45 29.908Z" fill="url(#paint2_radial_2111_3126)" fill-opacity="0.7"/>
</g>
</g>
<defs>
<filter id="filter0_i_2111_3126" x="-3" y="-4" width="162" height="53" filterUnits="userSpaceOnUse" color-interpolation-filters="sRGB">
<feFlood flood-opacity="0" result="BackgroundImageFix"/>
<feBlend mode="normal" in="SourceGraphic" in2="BackgroundImageFix" result="shape"/>
<feColorMatrix in="SourceAlpha" type="matrix" values="0 0 0 0 0 0 0 0 0 0 0 0 0 0 0 0 0 0 127 0" result="hardAlpha"/>
<feOffset dx="-3" dy="-4"/>
<feGaussianBlur stdDeviation="3.5"/>
<feComposite in2="hardAlpha" operator="arithmetic" k2="-1" k3="1"/>
<feColorMatrix type="matrix" values="0 0 0 0 1 0 0 0 0 1 0 0 0 0 1 0 0 0 0.15 0"/>
<feBlend mode="normal" in2="shape" result="effect1_innerShadow_2111_3126"/>
</filter>
<filter id="filter1_d_2111_3126" x="39.854" y="20.4021" width="81.4043" height="12.7659" filterUnits="userSpaceOnUse" color-interpolation-filters="sRGB">
<feFlood flood-opacity="0" result="BackgroundImageFix"/>
<feColorMatrix in="SourceAlpha" type="matrix" values="0 0 0 0 0 0 0 0 0 0 0 0 0 0 0 0 0 0 127 0" result="hardAlpha"/>
<feOffset dx="1" dy="1"/>
<feGaussianBlur stdDeviation="0.5"/>
<feColorMatrix type="matrix" values="0 0 0 0 0 0 0 0 0 0 0 0 0 0 0 0 0 0 0.25 0"/>
<feBlend mode="normal" in2="BackgroundImageFix" result="effect1_dropShadow_2111_3126"/>
<feBlend mode="normal" in="SourceGraphic" in2="effect1_dropShadow_2111_3126" result="shape"/>
</filter>
<radialGradient id="paint0_radial_2111_3126" cx="0" cy="0" r="1" gradientUnits="userSpaceOnUse" gradientTransform="translate(41.9583 10.2083) rotate(20.8651) scale(89.806 61.1326)">
<stop stop-color="white" stop-opacity="0.59"/>
<stop offset="0.697917" stop-color="white" stop-opacity="0"/>
<stop offset="1" stop-color="white" stop-opacity="0"/>
</radialGradient>
<radialGradient id="paint1_radial_2111_3126" cx="0" cy="0" r="1" gradientUnits="userSpaceOnUse" gradientTransform="translate(137.219 42.875) rotate(-101.759) scale(42.7513 148.802)">
<stop stop-opacity="0.23"/>
<stop offset="0.861815" stop-opacity="0"/>
</radialGradient>
<radialGradient id="paint2_radial_2111_3126" cx="0" cy="0" r="1" gradientUnits="userSpaceOnUse" gradientTransform="translate(65.2131 19.541) rotate(18.0066) scale(36.7508 23.2949)">
<stop stop-color="white"/>
<stop offset="0.697917" stop-color="white" stop-opacity="0"/>
<stop offset="1" stop-color="white" stop-opacity="0"/>
</radialGradient>
</defs>
</svg>
