<svg width="56" height="56" viewBox="0 0 56 56" fill="none" xmlns="http://www.w3.org/2000/svg">
<rect width="56" height="56" rx="28" fill="url(#paint0_linear_2263_732)"/>
<path d="M33.971 34.7003C34.1722 35.879 33.3002 36.9654 32.1254 36.9996C31.8422 37.0079 31.4 36.8867 30.5156 36.6443C30.0101 36.5058 29.7574 36.4365 29.5047 36.3854C28.5113 36.1843 27.4887 36.1843 26.4953 36.3854C26.2426 36.4365 25.9899 36.5058 25.4844 36.6443C24.6 36.8867 24.1578 37.0079 23.8746 36.9996C22.6998 36.9654 21.8278 35.879 22.029 34.7003C22.0775 34.4162 22.2823 33.9992 22.6919 33.1653L23.5706 31.3763C25.1563 28.148 25.9492 26.5339 27.0904 26.1493C27.681 25.9502 28.319 25.9502 28.9096 26.1493C30.0508 26.5339 30.8437 28.148 32.4294 31.3763" stroke="#FFC700" stroke-width="1.5" stroke-linecap="round"/>
<path d="M22.1448 21.5275C22.5566 23.1582 23.721 24.2441 24.7457 23.9528C25.7703 23.6614 26.267 22.1033 25.8552 20.4725C25.4434 18.8418 24.279 17.7559 23.2543 18.0473C22.2297 18.3386 21.733 19.8967 22.1448 21.5275Z" stroke="#FFC700" stroke-width="1.5"/>
<path d="M33.8552 21.5275C33.4434 23.1582 32.279 24.2441 31.2543 23.9528C30.2297 23.6614 29.733 22.1033 30.1448 20.4725C30.5566 18.8418 31.721 17.7559 32.7457 18.0473C33.7703 18.3386 34.267 19.8967 33.8552 21.5275Z" stroke="#FFC700" stroke-width="1.5"/>
<path d="M18.2017 28.2971C18.6517 29.5021 19.7097 30.2341 20.5648 29.9319C21.4199 29.6298 21.7483 28.4079 21.2983 27.2029C20.8483 25.9979 19.7903 25.2659 18.9352 25.5681C18.0801 25.8702 17.7517 27.0921 18.2017 28.2971Z" stroke="#FFC700" stroke-width="1.5"/>
<path d="M37.7983 28.2971C37.3483 29.5021 36.2903 30.2341 35.4352 29.9319C34.5801 29.6298 34.2517 28.4079 34.7017 27.2029C35.1517 25.9979 36.2097 25.2659 37.0648 25.5681C37.9199 25.8702 38.2483 27.0921 37.7983 28.2971Z" stroke="#FFC700" stroke-width="1.5"/>
<defs>
<linearGradient id="paint0_linear_2263_732" x1="0" y1="0" x2="56" y2="56" gradientUnits="userSpaceOnUse">
<stop stop-color="#02C5BD"/>
<stop offset="1" stop-color="#070C3E"/>
</linearGradient>
</defs>
</svg>
