<svg width="25" height="24" viewBox="0 0 25 24" fill="none" xmlns="http://www.w3.org/2000/svg">
<path d="M18.3043 18.7003C18.5055 19.879 17.6335 20.9654 16.4587 20.9996C16.1755 21.0079 15.7333 20.8867 14.8488 20.6443C14.3434 20.5058 14.0907 20.4365 13.8379 20.3854C12.8445 20.1843 11.822 20.1843 10.8286 20.3854C10.5758 20.4365 10.3231 20.5058 9.8177 20.6443C8.93325 20.8867 8.49102 21.0079 8.20783 20.9996C7.03305 20.9654 6.16101 19.879 6.36221 18.7003C6.41071 18.4162 6.61552 17.9992 7.02514 17.1653L7.9039 15.3763C9.4896 12.148 10.2824 10.5339 11.4237 10.1493C12.0143 9.95024 12.6522 9.95024 13.2428 10.1493C14.3841 10.5339 15.1769 12.148 16.7626 15.3763" stroke="#808080" stroke-width="1.5" stroke-linecap="round"/>
<path d="M6.47802 5.52746C6.88984 7.15822 8.0543 8.24406 9.07891 7.95275C10.1035 7.66144 10.6003 6.1033 10.1885 4.47254C9.77666 2.84178 8.61221 1.75594 7.58759 2.04725C6.56298 2.33856 6.06621 3.8967 6.47802 5.52746Z" stroke="#808080" stroke-width="1.5"/>
<path d="M18.1885 5.52746C17.7767 7.15822 16.6122 8.24406 15.5876 7.95275C14.563 7.66144 14.0662 6.1033 14.478 4.47254C14.8898 2.84178 16.0543 1.75594 17.0789 2.04725C18.1035 2.33856 18.6003 3.8967 18.1885 5.52746Z" stroke="#808080" stroke-width="1.5"/>
<path d="M2.53491 12.2971C2.98491 13.5021 4.04293 14.2341 4.89805 13.9319C5.75318 13.6298 6.0816 12.4079 5.63159 11.2029C5.18159 9.99785 4.12358 9.26592 3.26845 9.56808C2.41333 9.87024 2.08491 11.0921 2.53491 12.2971Z" stroke="#808080" stroke-width="1.5"/>
<path d="M22.1316 12.2971C21.6816 13.5021 20.6236 14.2341 19.7685 13.9319C18.9133 13.6298 18.5849 12.4079 19.0349 11.2029C19.4849 9.99785 20.5429 9.26592 21.3981 9.56808C22.2532 9.87024 22.5816 11.0921 22.1316 12.2971Z" stroke="#808080" stroke-width="1.5"/>
</svg>
