<svg width="25" height="24" viewBox="0 0 25 24" fill="none" xmlns="http://www.w3.org/2000/svg">
<path d="M1.75767 15.2727C1.10313 15.2727 0.666748 15.7091 0.666748 16.3636V20.7273C0.666748 22.5818 2.08492 24 3.93947 24H8.30312C8.95767 24 9.39405 23.5636 9.39405 22.9091C9.39405 22.2545 8.95767 21.8182 8.30312 21.8182H3.93947C3.28493 21.8182 2.84855 21.3818 2.84855 20.7272V16.3636C2.84859 15.7091 2.41222 15.2727 1.75767 15.2727ZM23.5759 15.2727C22.9214 15.2727 22.485 15.7091 22.485 16.3636V20.7273C22.485 21.3818 22.0486 21.8182 21.3941 21.8182H17.0304C16.3759 21.8182 15.9395 22.2546 15.9395 22.9091C15.9395 23.5637 16.3759 24 17.0304 24H21.3941C23.2486 24 24.6668 22.5818 24.6668 20.7273V16.3636C24.6668 15.7091 24.2305 15.2727 23.5759 15.2727ZM8.30312 -9.34601e-05H3.93947C2.08492 -9.34601e-05 0.666748 1.41808 0.666748 3.27263V7.63628C0.666748 8.29083 1.10313 8.72721 1.75767 8.72721C2.41222 8.72721 2.84859 8.29083 2.84859 7.63628V3.27263C2.84859 2.61809 3.28497 2.18171 3.93952 2.18171H8.30317C8.95771 2.18171 9.39409 1.74533 9.39409 1.09078C9.39405 0.436283 8.95767 -9.34601e-05 8.30312 -9.34601e-05ZM21.3941 -9.34601e-05H17.0305C16.3759 -9.34601e-05 15.9395 0.436285 15.9395 1.09083C15.9395 1.74537 16.3759 2.18175 17.0305 2.18175H21.3941C22.0487 2.18175 22.485 2.61813 22.485 3.27268V7.63633C22.485 8.29087 22.9214 8.72725 23.576 8.72725C24.2305 8.72725 24.6669 8.29087 24.6669 7.63633V3.27268C24.6668 1.41808 23.2487 -9.34601e-05 21.3941 -9.34601e-05Z" fill="#808080"/>
<path d="M10.4851 13.0907H6.12144C5.4669 13.0907 5.03052 13.5271 5.03052 14.1817V18.5453C5.03052 19.1999 5.4669 19.6362 6.12144 19.6362H10.4851C11.1396 19.6362 11.576 19.1999 11.576 18.5453V14.1817C11.576 13.5271 11.1396 13.0907 10.4851 13.0907ZM7.21236 15.2726H9.39421V17.4544H7.21236V15.2726ZM10.4851 4.36344H6.12144C5.4669 4.36344 5.03052 4.79981 5.03052 5.45436V9.81801C5.03052 10.4726 5.4669 10.9089 6.12144 10.9089H10.4851C11.1396 10.9089 11.576 10.4726 11.576 9.81801V5.45436C11.576 4.79981 11.1396 4.36344 10.4851 4.36344ZM7.21236 6.54528H9.39421V8.72713H7.21236V6.54528ZM19.2124 13.0907H14.8487C14.1942 13.0907 13.7578 13.5271 13.7578 14.1817V18.5453C13.7578 19.1999 14.1942 19.6362 14.8487 19.6362H19.2124C19.8669 19.6362 20.3033 19.1999 20.3033 18.5453V14.1817C20.3033 13.5271 19.8669 13.0907 19.2124 13.0907ZM15.9397 15.2726H18.1215V17.4544H15.9397V15.2726ZM14.8487 7.6362C14.1942 7.6362 13.7578 8.07258 13.7578 8.72713V9.81805C13.7578 10.4726 14.1942 10.909 14.8487 10.909C15.5033 10.909 15.9397 10.4726 15.9397 9.81805V8.72713C15.9397 8.07254 15.5033 7.6362 14.8487 7.6362ZM19.2124 8.72709H18.1215C17.4669 8.72709 17.0305 9.16346 17.0305 9.81801C17.0305 10.4726 17.4669 10.9089 18.1215 10.9089H19.2124C19.8669 10.9089 20.3033 10.4726 20.3033 9.81801C20.3033 9.16346 19.8669 8.72709 19.2124 8.72709ZM19.2124 4.36344H15.9397C15.2851 4.36344 14.8487 4.79981 14.8487 5.45436C14.8487 6.1089 15.2851 6.54528 15.9397 6.54528H19.2124C19.8669 6.54528 20.3033 6.1089 20.3033 5.45436C20.3033 4.79981 19.8669 4.36344 19.2124 4.36344Z" fill="#808080"/>
</svg>
