<svg width="56" height="56" viewBox="0 0 56 56" fill="none" xmlns="http://www.w3.org/2000/svg">
<rect width="56" height="56" rx="28" fill="url(#paint0_linear_2263_736)"/>
<path d="M17.0909 31.2727C16.4364 31.2727 16 31.7091 16 32.3636V36.7273C16 38.5818 17.4182 40 19.2727 40H23.6364C24.2909 40 24.7273 39.5636 24.7273 38.9091C24.7273 38.2545 24.2909 37.8182 23.6364 37.8182H19.2727C18.6182 37.8182 18.1818 37.3818 18.1818 36.7272V32.3636C18.1818 31.7091 17.7455 31.2727 17.0909 31.2727ZM38.9092 31.2727C38.2546 31.2727 37.8182 31.7091 37.8182 32.3636V36.7273C37.8182 37.3818 37.3819 37.8182 36.7273 37.8182H32.3637C31.7091 37.8182 31.2728 38.2546 31.2728 38.9091C31.2728 39.5637 31.7091 40 32.3637 40H36.7273C38.5819 40 40 38.5818 40 36.7273V32.3636C40.0001 31.7091 39.5637 31.2727 38.9092 31.2727ZM23.6364 15.9999H19.2727C17.4182 15.9999 16 17.4181 16 19.2726V23.6363C16 24.2908 16.4364 24.7272 17.0909 24.7272C17.7455 24.7272 18.1818 24.2908 18.1818 23.6363V19.2726C18.1818 18.6181 18.6182 18.1817 19.2728 18.1817H23.6364C24.291 18.1817 24.7273 17.7453 24.7273 17.0908C24.7273 16.4363 24.2909 15.9999 23.6364 15.9999ZM36.7274 15.9999H32.3637C31.7092 15.9999 31.2728 16.4363 31.2728 17.0908C31.2728 17.7454 31.7092 18.1818 32.3637 18.1818H36.7274C37.3819 18.1818 37.8183 18.6181 37.8183 19.2727V23.6363C37.8183 24.2909 38.2547 24.7272 38.9092 24.7272C39.5638 24.7272 40.0001 24.2909 40.0001 23.6363V19.2727C40.0001 17.4181 38.5819 15.9999 36.7274 15.9999Z" fill="#FFC700"/>
<path d="M25.8183 29.0907H21.4547C20.8001 29.0907 20.3638 29.5271 20.3638 30.1817V34.5453C20.3638 35.1999 20.8001 35.6362 21.4547 35.6362H25.8183C26.4729 35.6362 26.9093 35.1999 26.9093 34.5453V30.1817C26.9093 29.5271 26.4729 29.0907 25.8183 29.0907ZM22.5456 31.2726H24.7275V33.4544H22.5456V31.2726ZM25.8183 20.3634H21.4547C20.8001 20.3634 20.3638 20.7998 20.3638 21.4544V25.818C20.3638 26.4726 20.8001 26.9089 21.4547 26.9089H25.8183C26.4729 26.9089 26.9093 26.4726 26.9093 25.818V21.4544C26.9093 20.7998 26.4729 20.3634 25.8183 20.3634ZM22.5456 22.5453H24.7275V24.7271H22.5456V22.5453ZM34.5456 29.0907H30.182C29.5274 29.0907 29.0911 29.5271 29.0911 30.1817V34.5453C29.0911 35.1999 29.5274 35.6362 30.182 35.6362H34.5456C35.2002 35.6362 35.6366 35.1999 35.6366 34.5453V30.1817C35.6366 29.5271 35.2002 29.0907 34.5456 29.0907ZM31.2729 31.2726H33.4548V33.4544H31.2729V31.2726ZM30.182 23.6362C29.5274 23.6362 29.0911 24.0726 29.0911 24.7271V25.8181C29.0911 26.4726 29.5274 26.909 30.182 26.909C30.8365 26.909 31.2729 26.4726 31.2729 25.8181V24.7271C31.2729 24.0725 30.8365 23.6362 30.182 23.6362ZM34.5456 24.7271H33.4547C32.8002 24.7271 32.3638 25.1635 32.3638 25.818C32.3638 26.4726 32.8002 26.9089 33.4547 26.9089H34.5456C35.2002 26.9089 35.6366 26.4726 35.6366 25.818C35.6366 25.1635 35.2002 24.7271 34.5456 24.7271ZM34.5456 20.3634H31.2729C30.6184 20.3634 30.182 20.7998 30.182 21.4544C30.182 22.1089 30.6184 22.5453 31.2729 22.5453H34.5456C35.2002 22.5453 35.6366 22.1089 35.6366 21.4544C35.6366 20.7998 35.2002 20.3634 34.5456 20.3634Z" fill="#FFC700"/>
<defs>
<linearGradient id="paint0_linear_2263_736" x1="0" y1="0" x2="56" y2="56" gradientUnits="userSpaceOnUse">
<stop stop-color="#02C5BD"/>
<stop offset="1" stop-color="#070C3E"/>
</linearGradient>
</defs>
</svg>
