<svg width="28" height="28" viewBox="0 0 28 28" fill="none" xmlns="http://www.w3.org/2000/svg">
<path d="M0 19.3845H28V25.8461C28 26.4173 27.7731 26.9651 27.3692 27.3691C26.9652 27.773 26.4174 27.9999 25.8462 27.9999H2.15385C1.58261 27.9999 1.03477 27.773 0.630847 27.3691C0.226922 26.9651 0 26.4173 0 25.8461V19.3845Z" fill="#BDBDBD"/>
<path d="M28 7.53857V19.3847L22.6154 24.7693H0V7.53857H28Z" fill="#F5F5F5"/>
<path d="M27.9999 19.3845L22.6152 24.7691V20.4614C22.6152 20.1758 22.7287 19.9019 22.9307 19.6999C23.1326 19.498 23.4065 19.3845 23.6922 19.3845H27.9999Z" fill="#E0E0E0"/>
<path d="M2.15385 2.15381H25.8462C26.4174 2.15381 26.9652 2.38073 27.3692 2.78466C27.7731 3.18858 28 3.73642 28 4.30765V7.53842H0V4.30765C0 3.73642 0.226922 3.18858 0.630847 2.78466C1.03477 2.38073 1.58261 2.15381 2.15385 2.15381Z" fill="#FF1744"/>
<path d="M15.0767 1.07692C15.0767 0.482155 14.5945 0 13.9998 0C13.405 0 12.9229 0.482155 12.9229 1.07692V4.30769C12.9229 4.90246 13.405 5.38462 13.9998 5.38462C14.5945 5.38462 15.0767 4.90246 15.0767 4.30769V1.07692Z" fill="#424242"/>
<path d="M7.53861 1.07692C7.53861 0.482155 7.05646 0 6.46169 0C5.86692 0 5.38477 0.482155 5.38477 1.07692V4.30769C5.38477 4.90246 5.86692 5.38462 6.46169 5.38462C7.05646 5.38462 7.53861 4.90246 7.53861 4.30769V1.07692Z" fill="#424242"/>
<path d="M22.6153 1.07692C22.6153 0.482155 22.1331 0 21.5383 0C20.9436 0 20.4614 0.482155 20.4614 1.07692V4.30769C20.4614 4.90246 20.9436 5.38462 21.5383 5.38462C22.1331 5.38462 22.6153 4.90246 22.6153 4.30769V1.07692Z" fill="#424242"/>
<path d="M10.7691 11.3076C10.7691 10.7129 10.2869 10.2307 9.69216 10.2307C9.09739 10.2307 8.61523 10.7129 8.61523 11.3076C8.61523 11.9024 9.09739 12.3846 9.69216 12.3846C10.2869 12.3846 10.7691 11.9024 10.7691 11.3076Z" fill="#BDBDBD"/>
<path d="M15.0767 11.3076C15.0767 10.7129 14.5945 10.2307 13.9998 10.2307C13.405 10.2307 12.9229 10.7129 12.9229 11.3076C12.9229 11.9024 13.405 12.3846 13.9998 12.3846C14.5945 12.3846 15.0767 11.9024 15.0767 11.3076Z" fill="#BDBDBD"/>
<path d="M19.3848 11.3076C19.3848 10.7129 18.9026 10.2307 18.3079 10.2307C17.7131 10.2307 17.231 10.7129 17.231 11.3076C17.231 11.9024 17.7131 12.3846 18.3079 12.3846C18.9026 12.3846 19.3848 11.9024 19.3848 11.3076Z" fill="#BDBDBD"/>
<path d="M23.6924 11.3076C23.6924 10.7129 23.2103 10.2307 22.6155 10.2307C22.0207 10.2307 21.5386 10.7129 21.5386 11.3076C21.5386 11.9024 22.0207 12.3846 22.6155 12.3846C23.2103 12.3846 23.6924 11.9024 23.6924 11.3076Z" fill="#BDBDBD"/>
<path d="M6.46146 16.1538C6.46146 15.5591 5.97931 15.0769 5.38454 15.0769C4.78977 15.0769 4.30762 15.5591 4.30762 16.1538C4.30762 16.7486 4.78977 17.2308 5.38454 17.2308C5.97931 17.2308 6.46146 16.7486 6.46146 16.1538Z" fill="#BDBDBD"/>
<path d="M10.7691 16.1538C10.7691 15.5591 10.2869 15.0769 9.69216 15.0769C9.09739 15.0769 8.61523 15.5591 8.61523 16.1538C8.61523 16.7486 9.09739 17.2308 9.69216 17.2308C10.2869 17.2308 10.7691 16.7486 10.7691 16.1538Z" fill="#BDBDBD"/>
<path d="M15.0767 16.1538C15.0767 15.5591 14.5945 15.0769 13.9998 15.0769C13.405 15.0769 12.9229 15.5591 12.9229 16.1538C12.9229 16.7486 13.405 17.2308 13.9998 17.2308C14.5945 17.2308 15.0767 16.7486 15.0767 16.1538Z" fill="#BDBDBD"/>
<path d="M19.3848 16.1538C19.3848 15.5591 18.9026 15.0769 18.3079 15.0769C17.7131 15.0769 17.231 15.5591 17.231 16.1538C17.231 16.7486 17.7131 17.2308 18.3079 17.2308C18.9026 17.2308 19.3848 16.7486 19.3848 16.1538Z" fill="#BDBDBD"/>
<path d="M23.6924 16.1538C23.6924 15.5591 23.2103 15.0769 22.6155 15.0769C22.0207 15.0769 21.5386 15.5591 21.5386 16.1538C21.5386 16.7486 22.0207 17.2308 22.6155 17.2308C23.2103 17.2308 23.6924 16.7486 23.6924 16.1538Z" fill="#BDBDBD"/>
<path d="M6.46146 21C6.46146 20.4053 5.97931 19.9231 5.38454 19.9231C4.78977 19.9231 4.30762 20.4053 4.30762 21C4.30762 21.5948 4.78977 22.0769 5.38454 22.0769C5.97931 22.0769 6.46146 21.5948 6.46146 21Z" fill="#BDBDBD"/>
<path d="M10.7691 21C10.7691 20.4053 10.2869 19.9231 9.69216 19.9231C9.09739 19.9231 8.61523 20.4053 8.61523 21C8.61523 21.5948 9.09739 22.0769 9.69216 22.0769C10.2869 22.0769 10.7691 21.5948 10.7691 21Z" fill="#BDBDBD"/>
<path d="M15.0767 21C15.0767 20.4053 14.5945 19.9231 13.9998 19.9231C13.405 19.9231 12.9229 20.4053 12.9229 21C12.9229 21.5948 13.405 22.0769 13.9998 22.0769C14.5945 22.0769 15.0767 21.5948 15.0767 21Z" fill="#BDBDBD"/>
<path d="M19.3848 21C19.3848 20.4053 18.9026 19.9231 18.3079 19.9231C17.7131 19.9231 17.231 20.4053 17.231 21C17.231 21.5948 17.7131 22.0769 18.3079 22.0769C18.9026 22.0769 19.3848 21.5948 19.3848 21Z" fill="#BDBDBD"/>
</svg>
