<svg width="108" height="108" viewBox="0 0 108 108" fill="none" xmlns="http://www.w3.org/2000/svg">
<g filter="url(#filter0_d_1_877)">
<path d="M54 100C81.6142 100 104 77.6142 104 50C104 22.3858 81.6142 0 54 0C26.3858 0 4 22.3858 4 50C4 77.6142 26.3858 100 54 100Z" fill="#FACB01"/>
<path d="M104 50C104 48.4802 103.932 46.9761 103.799 45.4908L87.1472 28.839L80.4081 35.0459L64.6636 19.3013L21.0327 71.4078L49.4177 99.7927C50.9411 99.931 52.47 100 53.9997 100C81.614 100 104 77.6142 104 50Z" fill="#070C3E"/>
<path d="M81.6095 25.9474H67.2464L65.2245 20.4C64.8688 19.4241 64.2216 18.5812 63.3706 17.9856C62.5196 17.39 61.506 17.0705 60.4673 17.0705H47.5323C46.4936 17.0705 45.48 17.3899 44.629 17.9855C43.778 18.5811 43.1308 19.424 42.7751 20.4L40.7532 25.9474H26.3901C22.6618 25.9474 19.6392 28.9699 19.6392 32.6984V67.3017C19.6392 71.0301 22.6616 74.0527 26.3901 74.0527H81.6099C85.3382 74.0527 88.3608 71.0303 88.3608 67.3017V32.6984C88.3602 28.9699 85.3378 25.9474 81.6095 25.9474Z" fill="#707789"/>
<path d="M81.6098 25.9474H67.2467L65.2248 20.4C64.8691 19.4241 64.2219 18.5812 63.3709 17.9856C62.5199 17.39 61.5063 17.0705 60.4676 17.0705H53.9697V74.0525H81.61C85.3383 74.0525 88.3609 71.0301 88.3609 67.3016V32.6984C88.3605 28.9699 85.3381 25.9474 81.6098 25.9474Z" fill="#555A66"/>
<path d="M54 70.9023C65.228 70.9023 74.3301 61.8003 74.3301 50.5723C74.3301 39.3443 65.228 30.2422 54 30.2422C42.772 30.2422 33.6699 39.3443 33.6699 50.5723C33.6699 61.8003 42.772 70.9023 54 70.9023Z" fill="#9196AA"/>
<path d="M54.0002 30.2422L53.9697 30.2426V70.9022L54.0002 70.9025C65.2281 70.9025 74.3303 61.8004 74.3303 50.5725C74.3303 39.3445 65.2281 30.2422 54.0002 30.2422Z" fill="#707789"/>
<path d="M54.0006 63.7135C61.2583 63.7135 67.1418 57.83 67.1418 50.5723C67.1418 43.3146 61.2583 37.4311 54.0006 37.4311C46.7429 37.4311 40.8594 43.3146 40.8594 50.5723C40.8594 57.83 46.7429 63.7135 54.0006 63.7135Z" fill="#414952"/>
<path d="M54.0002 37.4311C53.99 37.4311 53.9799 37.4319 53.9697 37.4319V63.7127C53.9799 63.7127 53.9898 63.7135 54.0002 63.7135C61.2578 63.7135 67.1414 57.8299 67.1414 50.5723C67.1414 43.3147 61.2578 37.4311 54.0002 37.4311Z" fill="#23272B"/>
<path d="M62.2722 25.7032H45.728L47.3171 21.0793H60.6831L62.2722 25.7032Z" fill="#BEC3D2"/>
<path d="M60.6832 21.0793H53.9697V25.7032H62.2723L60.6832 21.0793ZM73.3809 31.8965H84.9617V38.5141H73.3809V31.8965Z" fill="#9196AA"/>
<path d="M28.0756 69.1841C30.1841 69.1841 31.8934 67.4749 31.8934 65.3664C31.8934 63.2579 30.1841 61.5486 28.0756 61.5486C25.9671 61.5486 24.2578 63.2579 24.2578 65.3664C24.2578 67.4749 25.9671 69.1841 28.0756 69.1841Z" fill="#BEC3D2"/>
<path d="M47.1008 46.4893C48.4714 46.4893 49.5824 45.3782 49.5824 44.0076C49.5824 42.6371 48.4714 41.526 47.1008 41.526C45.7302 41.526 44.6191 42.6371 44.6191 44.0076C44.6191 45.3782 45.7302 46.4893 47.1008 46.4893Z" fill="white"/>
<path d="M50.2336 53.6771C52.1387 53.6771 53.683 52.1328 53.683 50.2277C53.683 48.3227 52.1387 46.7783 50.2336 46.7783C48.3285 46.7783 46.7842 48.3227 46.7842 50.2277C46.7842 52.1328 48.3285 53.6771 50.2336 53.6771Z" fill="white"/>
</g>
<defs>
<filter id="filter0_d_1_877" x="0" y="0" width="108" height="108" filterUnits="userSpaceOnUse" color-interpolation-filters="sRGB">
<feFlood flood-opacity="0" result="BackgroundImageFix"/>
<feColorMatrix in="SourceAlpha" type="matrix" values="0 0 0 0 0 0 0 0 0 0 0 0 0 0 0 0 0 0 127 0" result="hardAlpha"/>
<feOffset dy="4"/>
<feGaussianBlur stdDeviation="2"/>
<feComposite in2="hardAlpha" operator="out"/>
<feColorMatrix type="matrix" values="0 0 0 0 0 0 0 0 0 0 0 0 0 0 0 0 0 0 0.25 0"/>
<feBlend mode="normal" in2="BackgroundImageFix" result="effect1_dropShadow_1_877"/>
<feBlend mode="normal" in="SourceGraphic" in2="effect1_dropShadow_1_877" result="shape"/>
</filter>
</defs>
</svg>
