<svg width="321" height="73" viewBox="0 0 321 73" fill="none" xmlns="http://www.w3.org/2000/svg">
<g filter="url(#filter0_i_2122_382)">
<rect width="321" height="73" rx="20" fill="#FACB01"/>
<rect width="321" height="73" rx="20" fill="url(#paint0_radial_2122_382)" fill-opacity="0.7"/>
<path d="M101.909 49.384C100.202 49.384 98.6128 49.0747 97.1408 48.456C95.6901 47.8373 94.4208 46.9733 93.3328 45.864C92.2448 44.7547 91.3914 43.4533 90.7728 41.96C90.1754 40.4667 89.8768 38.8347 89.8768 37.064C89.8768 35.2933 90.1754 33.6613 90.7728 32.168C91.3701 30.6533 92.2128 29.352 93.3008 28.264C94.3888 27.1547 95.6581 26.3013 97.1088 25.704C98.5808 25.0853 100.181 24.776 101.909 24.776C103.637 24.776 105.183 25.064 106.549 25.64C107.935 26.216 109.109 26.984 110.069 27.944C111.029 28.904 111.711 29.9707 112.117 31.144L107.733 33.256C107.327 32.104 106.613 31.1547 105.589 30.408C104.586 29.64 103.359 29.256 101.909 29.256C100.501 29.256 99.2634 29.5867 98.1968 30.248C97.1301 30.9093 96.2981 31.8267 95.7008 33C95.1248 34.152 94.8368 35.5067 94.8368 37.064C94.8368 38.6213 95.1248 39.9867 95.7008 41.16C96.2981 42.3333 97.1301 43.2507 98.1968 43.912C99.2634 44.5733 100.501 44.904 101.909 44.904C103.359 44.904 104.586 44.5307 105.589 43.784C106.613 43.016 107.327 42.056 107.733 40.904L112.117 43.016C111.711 44.1893 111.029 45.256 110.069 46.216C109.109 47.176 107.935 47.944 106.549 48.52C105.183 49.096 103.637 49.384 101.909 49.384ZM123.307 49.384C121.579 49.384 120 48.9893 118.571 48.2C117.163 47.4107 116.032 46.3333 115.179 44.968C114.347 43.5813 113.931 42.0133 113.931 40.264C113.931 38.4933 114.347 36.9253 115.179 35.56C116.032 34.1947 117.163 33.1173 118.571 32.328C120 31.5387 121.579 31.144 123.307 31.144C125.035 31.144 126.603 31.5387 128.011 32.328C129.419 33.1173 130.539 34.1947 131.371 35.56C132.224 36.9253 132.651 38.4933 132.651 40.264C132.651 42.0133 132.224 43.5813 131.371 44.968C130.539 46.3333 129.419 47.4107 128.011 48.2C126.603 48.9893 125.035 49.384 123.307 49.384ZM123.307 45.064C124.182 45.064 124.939 44.8613 125.579 44.456C126.24 44.0507 126.752 43.4853 127.115 42.76C127.499 42.0347 127.691 41.2027 127.691 40.264C127.691 39.3253 127.499 38.504 127.115 37.8C126.752 37.0747 126.24 36.5093 125.579 36.104C124.939 35.6773 124.182 35.464 123.307 35.464C122.432 35.464 121.664 35.6773 121.003 36.104C120.342 36.5093 119.819 37.0747 119.435 37.8C119.072 38.504 118.891 39.3253 118.891 40.264C118.891 41.2027 119.072 42.0347 119.435 42.76C119.819 43.4853 120.342 44.0507 121.003 44.456C121.664 44.8613 122.432 45.064 123.307 45.064ZM135.479 49V31.528H139.959V34.984L139.703 34.216C140.108 33.1707 140.759 32.4027 141.655 31.912C142.572 31.4 143.639 31.144 144.855 31.144C146.177 31.144 147.329 31.4213 148.311 31.976C149.313 32.5307 150.092 33.3093 150.647 34.312C151.201 35.2933 151.479 36.4453 151.479 37.768V49H146.679V38.792C146.679 38.1093 146.54 37.5227 146.263 37.032C146.007 36.5413 145.633 36.1573 145.143 35.88C144.673 35.6027 144.119 35.464 143.479 35.464C142.86 35.464 142.305 35.6027 141.815 35.88C141.324 36.1573 140.94 36.5413 140.663 37.032C140.407 37.5227 140.279 38.1093 140.279 38.792V49H135.479ZM163.051 49.192C160.939 49.192 159.296 48.6267 158.123 47.496C156.971 46.344 156.395 44.744 156.395 42.696V35.688H153.451V31.528H153.611C154.507 31.528 155.19 31.304 155.659 30.856C156.15 30.408 156.395 29.736 156.395 28.84V27.56H161.195V31.528H165.291V35.688H161.195V42.376C161.195 42.9733 161.302 43.4747 161.515 43.88C161.728 44.264 162.059 44.552 162.507 44.744C162.955 44.936 163.51 45.032 164.171 45.032C164.32 45.032 164.491 45.0213 164.683 45C164.875 44.9787 165.078 44.9573 165.291 44.936V49C164.971 49.0427 164.608 49.0853 164.203 49.128C163.798 49.1707 163.414 49.192 163.051 49.192ZM168.104 49V31.528H172.904V49H168.104ZM168.104 29.96V25.16H172.904V29.96H168.104ZM176.416 49V31.528H180.896V34.984L180.64 34.216C181.046 33.1707 181.696 32.4027 182.592 31.912C183.51 31.4 184.576 31.144 185.792 31.144C187.115 31.144 188.267 31.4213 189.248 31.976C190.251 32.5307 191.03 33.3093 191.584 34.312C192.139 35.2933 192.416 36.4453 192.416 37.768V49H187.616V38.792C187.616 38.1093 187.478 37.5227 187.2 37.032C186.944 36.5413 186.571 36.1573 186.08 35.88C185.611 35.6027 185.056 35.464 184.416 35.464C183.798 35.464 183.243 35.6027 182.752 35.88C182.262 36.1573 181.878 36.5413 181.6 37.032C181.344 37.5227 181.216 38.1093 181.216 38.792V49H176.416ZM201.845 49.384C200.437 49.384 199.231 49.0853 198.229 48.488C197.247 47.8693 196.501 47.016 195.989 45.928C195.477 44.84 195.221 43.5707 195.221 42.12V31.528H200.021V41.736C200.021 42.3973 200.149 42.984 200.405 43.496C200.682 43.9867 201.066 44.3707 201.557 44.648C202.047 44.9253 202.602 45.064 203.22 45.064C203.861 45.064 204.415 44.9253 204.885 44.648C205.375 44.3707 205.749 43.9867 206.005 43.496C206.282 42.984 206.421 42.3973 206.421 41.736V31.528H211.221V49H206.741V45.544L206.997 46.312C206.591 47.3573 205.93 48.136 205.013 48.648C204.117 49.1387 203.061 49.384 201.845 49.384ZM223.145 49.384C221.289 49.384 219.678 48.9787 218.313 48.168C216.947 47.336 215.891 46.2267 215.145 44.84C214.398 43.4533 214.025 41.9173 214.025 40.232C214.025 38.4827 214.409 36.9253 215.177 35.56C215.966 34.1947 217.022 33.1173 218.345 32.328C219.667 31.5387 221.161 31.144 222.825 31.144C224.211 31.144 225.438 31.368 226.505 31.816C227.571 32.2427 228.467 32.8507 229.193 33.64C229.939 34.4293 230.505 35.3467 230.889 36.392C231.273 37.416 231.465 38.536 231.465 39.752C231.465 40.0933 231.443 40.4347 231.401 40.776C231.379 41.096 231.326 41.3733 231.241 41.608H218.153V38.088H228.521L226.249 39.752C226.462 38.8347 226.451 38.024 226.217 37.32C225.982 36.5947 225.566 36.0293 224.969 35.624C224.393 35.1973 223.678 34.984 222.825 34.984C221.993 34.984 221.278 35.1867 220.681 35.592C220.083 35.9973 219.635 36.5947 219.337 37.384C219.038 38.1733 218.921 39.1333 218.985 40.264C218.899 41.2453 219.017 42.1093 219.337 42.856C219.657 43.6027 220.147 44.1893 220.809 44.616C221.47 45.0213 222.27 45.224 223.209 45.224C224.062 45.224 224.787 45.0533 225.385 44.712C226.003 44.3707 226.483 43.9013 226.825 43.304L230.665 45.128C230.323 45.9813 229.779 46.728 229.033 47.368C228.307 48.008 227.443 48.5093 226.441 48.872C225.438 49.2133 224.339 49.384 223.145 49.384Z" fill="black" fill-opacity="0.9"/>
<path d="M101.909 49.384C100.202 49.384 98.6128 49.0747 97.1408 48.456C95.6901 47.8373 94.4208 46.9733 93.3328 45.864C92.2448 44.7547 91.3914 43.4533 90.7728 41.96C90.1754 40.4667 89.8768 38.8347 89.8768 37.064C89.8768 35.2933 90.1754 33.6613 90.7728 32.168C91.3701 30.6533 92.2128 29.352 93.3008 28.264C94.3888 27.1547 95.6581 26.3013 97.1088 25.704C98.5808 25.0853 100.181 24.776 101.909 24.776C103.637 24.776 105.183 25.064 106.549 25.64C107.935 26.216 109.109 26.984 110.069 27.944C111.029 28.904 111.711 29.9707 112.117 31.144L107.733 33.256C107.327 32.104 106.613 31.1547 105.589 30.408C104.586 29.64 103.359 29.256 101.909 29.256C100.501 29.256 99.2634 29.5867 98.1968 30.248C97.1301 30.9093 96.2981 31.8267 95.7008 33C95.1248 34.152 94.8368 35.5067 94.8368 37.064C94.8368 38.6213 95.1248 39.9867 95.7008 41.16C96.2981 42.3333 97.1301 43.2507 98.1968 43.912C99.2634 44.5733 100.501 44.904 101.909 44.904C103.359 44.904 104.586 44.5307 105.589 43.784C106.613 43.016 107.327 42.056 107.733 40.904L112.117 43.016C111.711 44.1893 111.029 45.256 110.069 46.216C109.109 47.176 107.935 47.944 106.549 48.52C105.183 49.096 103.637 49.384 101.909 49.384ZM123.307 49.384C121.579 49.384 120 48.9893 118.571 48.2C117.163 47.4107 116.032 46.3333 115.179 44.968C114.347 43.5813 113.931 42.0133 113.931 40.264C113.931 38.4933 114.347 36.9253 115.179 35.56C116.032 34.1947 117.163 33.1173 118.571 32.328C120 31.5387 121.579 31.144 123.307 31.144C125.035 31.144 126.603 31.5387 128.011 32.328C129.419 33.1173 130.539 34.1947 131.371 35.56C132.224 36.9253 132.651 38.4933 132.651 40.264C132.651 42.0133 132.224 43.5813 131.371 44.968C130.539 46.3333 129.419 47.4107 128.011 48.2C126.603 48.9893 125.035 49.384 123.307 49.384ZM123.307 45.064C124.182 45.064 124.939 44.8613 125.579 44.456C126.24 44.0507 126.752 43.4853 127.115 42.76C127.499 42.0347 127.691 41.2027 127.691 40.264C127.691 39.3253 127.499 38.504 127.115 37.8C126.752 37.0747 126.24 36.5093 125.579 36.104C124.939 35.6773 124.182 35.464 123.307 35.464C122.432 35.464 121.664 35.6773 121.003 36.104C120.342 36.5093 119.819 37.0747 119.435 37.8C119.072 38.504 118.891 39.3253 118.891 40.264C118.891 41.2027 119.072 42.0347 119.435 42.76C119.819 43.4853 120.342 44.0507 121.003 44.456C121.664 44.8613 122.432 45.064 123.307 45.064ZM135.479 49V31.528H139.959V34.984L139.703 34.216C140.108 33.1707 140.759 32.4027 141.655 31.912C142.572 31.4 143.639 31.144 144.855 31.144C146.177 31.144 147.329 31.4213 148.311 31.976C149.313 32.5307 150.092 33.3093 150.647 34.312C151.201 35.2933 151.479 36.4453 151.479 37.768V49H146.679V38.792C146.679 38.1093 146.54 37.5227 146.263 37.032C146.007 36.5413 145.633 36.1573 145.143 35.88C144.673 35.6027 144.119 35.464 143.479 35.464C142.86 35.464 142.305 35.6027 141.815 35.88C141.324 36.1573 140.94 36.5413 140.663 37.032C140.407 37.5227 140.279 38.1093 140.279 38.792V49H135.479ZM163.051 49.192C160.939 49.192 159.296 48.6267 158.123 47.496C156.971 46.344 156.395 44.744 156.395 42.696V35.688H153.451V31.528H153.611C154.507 31.528 155.19 31.304 155.659 30.856C156.15 30.408 156.395 29.736 156.395 28.84V27.56H161.195V31.528H165.291V35.688H161.195V42.376C161.195 42.9733 161.302 43.4747 161.515 43.88C161.728 44.264 162.059 44.552 162.507 44.744C162.955 44.936 163.51 45.032 164.171 45.032C164.32 45.032 164.491 45.0213 164.683 45C164.875 44.9787 165.078 44.9573 165.291 44.936V49C164.971 49.0427 164.608 49.0853 164.203 49.128C163.798 49.1707 163.414 49.192 163.051 49.192ZM168.104 49V31.528H172.904V49H168.104ZM168.104 29.96V25.16H172.904V29.96H168.104ZM176.416 49V31.528H180.896V34.984L180.64 34.216C181.046 33.1707 181.696 32.4027 182.592 31.912C183.51 31.4 184.576 31.144 185.792 31.144C187.115 31.144 188.267 31.4213 189.248 31.976C190.251 32.5307 191.03 33.3093 191.584 34.312C192.139 35.2933 192.416 36.4453 192.416 37.768V49H187.616V38.792C187.616 38.1093 187.478 37.5227 187.2 37.032C186.944 36.5413 186.571 36.1573 186.08 35.88C185.611 35.6027 185.056 35.464 184.416 35.464C183.798 35.464 183.243 35.6027 182.752 35.88C182.262 36.1573 181.878 36.5413 181.6 37.032C181.344 37.5227 181.216 38.1093 181.216 38.792V49H176.416ZM201.845 49.384C200.437 49.384 199.231 49.0853 198.229 48.488C197.247 47.8693 196.501 47.016 195.989 45.928C195.477 44.84 195.221 43.5707 195.221 42.12V31.528H200.021V41.736C200.021 42.3973 200.149 42.984 200.405 43.496C200.682 43.9867 201.066 44.3707 201.557 44.648C202.047 44.9253 202.602 45.064 203.22 45.064C203.861 45.064 204.415 44.9253 204.885 44.648C205.375 44.3707 205.749 43.9867 206.005 43.496C206.282 42.984 206.421 42.3973 206.421 41.736V31.528H211.221V49H206.741V45.544L206.997 46.312C206.591 47.3573 205.93 48.136 205.013 48.648C204.117 49.1387 203.061 49.384 201.845 49.384ZM223.145 49.384C221.289 49.384 219.678 48.9787 218.313 48.168C216.947 47.336 215.891 46.2267 215.145 44.84C214.398 43.4533 214.025 41.9173 214.025 40.232C214.025 38.4827 214.409 36.9253 215.177 35.56C215.966 34.1947 217.022 33.1173 218.345 32.328C219.667 31.5387 221.161 31.144 222.825 31.144C224.211 31.144 225.438 31.368 226.505 31.816C227.571 32.2427 228.467 32.8507 229.193 33.64C229.939 34.4293 230.505 35.3467 230.889 36.392C231.273 37.416 231.465 38.536 231.465 39.752C231.465 40.0933 231.443 40.4347 231.401 40.776C231.379 41.096 231.326 41.3733 231.241 41.608H218.153V38.088H228.521L226.249 39.752C226.462 38.8347 226.451 38.024 226.217 37.32C225.982 36.5947 225.566 36.0293 224.969 35.624C224.393 35.1973 223.678 34.984 222.825 34.984C221.993 34.984 221.278 35.1867 220.681 35.592C220.083 35.9973 219.635 36.5947 219.337 37.384C219.038 38.1733 218.921 39.1333 218.985 40.264C218.899 41.2453 219.017 42.1093 219.337 42.856C219.657 43.6027 220.147 44.1893 220.809 44.616C221.47 45.0213 222.27 45.224 223.209 45.224C224.062 45.224 224.787 45.0533 225.385 44.712C226.003 44.3707 226.483 43.9013 226.825 43.304L230.665 45.128C230.323 45.9813 229.779 46.728 229.033 47.368C228.307 48.008 227.443 48.5093 226.441 48.872C225.438 49.2133 224.339 49.384 223.145 49.384Z" fill="url(#paint1_radial_2122_382)" fill-opacity="0.7"/>
</g>
<defs>
<filter id="filter0_i_2122_382" x="-3" y="-4" width="324" height="77" filterUnits="userSpaceOnUse" color-interpolation-filters="sRGB">
<feFlood flood-opacity="0" result="BackgroundImageFix"/>
<feBlend mode="normal" in="SourceGraphic" in2="BackgroundImageFix" result="shape"/>
<feColorMatrix in="SourceAlpha" type="matrix" values="0 0 0 0 0 0 0 0 0 0 0 0 0 0 0 0 0 0 127 0" result="hardAlpha"/>
<feOffset dx="-3" dy="-4"/>
<feGaussianBlur stdDeviation="3.5"/>
<feComposite in2="hardAlpha" operator="arithmetic" k2="-1" k3="1"/>
<feColorMatrix type="matrix" values="0 0 0 0 1 0 0 0 0 1 0 0 0 0 1 0 0 0 0.15 0"/>
<feBlend mode="normal" in2="shape" result="effect1_innerShadow_2122_382"/>
</filter>
<radialGradient id="paint0_radial_2122_382" cx="0" cy="0" r="1" gradientUnits="userSpaceOnUse" gradientTransform="translate(57.3787) rotate(18.3639) scale(191.824 125.211)">
<stop stop-color="white"/>
<stop offset="0.170536" stop-color="white" stop-opacity="0"/>
<stop offset="1" stop-color="white" stop-opacity="0"/>
</radialGradient>
<radialGradient id="paint1_radial_2122_382" cx="0" cy="0" r="1" gradientUnits="userSpaceOnUse" gradientTransform="translate(134.352 23.8689) rotate(22.2194) scale(66.7608 50.3905)">
<stop stop-color="white"/>
<stop offset="0.697917" stop-color="white" stop-opacity="0"/>
<stop offset="1" stop-color="white" stop-opacity="0"/>
</radialGradient>
</defs>
</svg>
