<svg width="400" height="73" viewBox="0 0 400 73" fill="none" xmlns="http://www.w3.org/2000/svg">
<g filter="url(#filter0_i_2122_331)">
<rect width="400" height="73" rx="36.5" fill="#FACB01"/>
<rect width="400" height="73" rx="36.5" fill="url(#paint0_radial_2122_331)" fill-opacity="0.7"/>
<path d="M34.9088 48.384C33.2021 48.384 31.6128 48.0747 30.1408 47.456C28.6901 46.8373 27.4208 45.9733 26.3328 44.864C25.2448 43.7547 24.3914 42.4533 23.7728 40.96C23.1754 39.4667 22.8768 37.8347 22.8768 36.064C22.8768 34.2933 23.1754 32.6613 23.7728 31.168C24.3701 29.6533 25.2128 28.352 26.3008 27.264C27.3888 26.1547 28.6581 25.3013 30.1088 24.704C31.5808 24.0853 33.1808 23.776 34.9088 23.776C36.6368 23.776 38.1834 24.064 39.5487 24.64C40.9354 25.216 42.1088 25.984 43.0688 26.944C44.0288 27.904 44.7114 28.9707 45.1168 30.144L40.7328 32.256C40.3274 31.104 39.6128 30.1547 38.5888 29.408C37.5861 28.64 36.3594 28.256 34.9088 28.256C33.5008 28.256 32.2634 28.5867 31.1968 29.248C30.1301 29.9093 29.2981 30.8267 28.7008 32C28.1248 33.152 27.8368 34.5067 27.8368 36.064C27.8368 37.6213 28.1248 38.9867 28.7008 40.16C29.2981 41.3333 30.1301 42.2507 31.1968 42.912C32.2634 43.5733 33.5008 43.904 34.9088 43.904C36.3594 43.904 37.5861 43.5307 38.5888 42.784C39.6128 42.016 40.3274 41.056 40.7328 39.904L45.1168 42.016C44.7114 43.1893 44.0288 44.256 43.0688 45.216C42.1088 46.176 40.9354 46.944 39.5487 47.52C38.1834 48.096 36.6368 48.384 34.9088 48.384ZM56.307 48.384C54.579 48.384 53.0003 47.9893 51.571 47.2C50.163 46.4107 49.0323 45.3333 48.179 43.968C47.347 42.5813 46.931 41.0133 46.931 39.264C46.931 37.4933 47.347 35.9253 48.179 34.56C49.0323 33.1947 50.163 32.1173 51.571 31.328C53.0003 30.5387 54.579 30.144 56.307 30.144C58.035 30.144 59.603 30.5387 61.011 31.328C62.419 32.1173 63.539 33.1947 64.371 34.56C65.2243 35.9253 65.651 37.4933 65.651 39.264C65.651 41.0133 65.2243 42.5813 64.371 43.968C63.539 45.3333 62.419 46.4107 61.011 47.2C59.603 47.9893 58.035 48.384 56.307 48.384ZM56.307 44.064C57.1817 44.064 57.939 43.8613 58.579 43.456C59.2403 43.0507 59.7523 42.4853 60.115 41.76C60.499 41.0347 60.691 40.2027 60.691 39.264C60.691 38.3253 60.499 37.504 60.115 36.8C59.7523 36.0747 59.2403 35.5093 58.579 35.104C57.939 34.6773 57.1817 34.464 56.307 34.464C55.4323 34.464 54.6643 34.6773 54.003 35.104C53.3417 35.5093 52.819 36.0747 52.435 36.8C52.0723 37.504 51.891 38.3253 51.891 39.264C51.891 40.2027 52.0723 41.0347 52.435 41.76C52.819 42.4853 53.3417 43.0507 54.003 43.456C54.6643 43.8613 55.4323 44.064 56.307 44.064ZM68.4788 48V30.528H72.9588V33.984L72.7028 33.216C73.1081 32.1707 73.7588 31.4027 74.6548 30.912C75.5721 30.4 76.6388 30.144 77.8548 30.144C79.1774 30.144 80.3294 30.4213 81.3108 30.976C82.3134 31.5307 83.0921 32.3093 83.6468 33.312C84.2014 34.2933 84.4788 35.4453 84.4788 36.768V48H79.6788V37.792C79.6788 37.1093 79.5401 36.5227 79.2628 36.032C79.0068 35.5413 78.6334 35.1573 78.1428 34.88C77.6734 34.6027 77.1188 34.464 76.4788 34.464C75.8601 34.464 75.3054 34.6027 74.8148 34.88C74.3241 35.1573 73.9401 35.5413 73.6628 36.032C73.4068 36.5227 73.2788 37.1093 73.2788 37.792V48H68.4788ZM96.051 48.192C93.939 48.192 92.2963 47.6267 91.123 46.496C89.971 45.344 89.395 43.744 89.395 41.696V34.688H86.451V30.528H86.611C87.507 30.528 88.1897 30.304 88.659 29.856C89.1497 29.408 89.395 28.736 89.395 27.84V26.56H94.195V30.528H98.291V34.688H94.195V41.376C94.195 41.9733 94.3017 42.4747 94.515 42.88C94.7283 43.264 95.059 43.552 95.507 43.744C95.955 43.936 96.5097 44.032 97.171 44.032C97.3203 44.032 97.491 44.0213 97.683 44C97.875 43.9787 98.0777 43.9573 98.291 43.936V48C97.971 48.0427 97.6083 48.0853 97.203 48.128C96.7977 48.1707 96.4137 48.192 96.051 48.192ZM101.104 48V30.528H105.904V48H101.104ZM101.104 28.96V24.16H105.904V28.96H101.104ZM109.416 48V30.528H113.896V33.984L113.64 33.216C114.046 32.1707 114.696 31.4027 115.592 30.912C116.51 30.4 117.576 30.144 118.792 30.144C120.115 30.144 121.267 30.4213 122.248 30.976C123.251 31.5307 124.03 32.3093 124.584 33.312C125.139 34.2933 125.416 35.4453 125.416 36.768V48H120.616V37.792C120.616 37.1093 120.478 36.5227 120.2 36.032C119.944 35.5413 119.571 35.1573 119.08 34.88C118.611 34.6027 118.056 34.464 117.416 34.464C116.798 34.464 116.243 34.6027 115.752 34.88C115.262 35.1573 114.878 35.5413 114.6 36.032C114.344 36.5227 114.216 37.1093 114.216 37.792V48H109.416ZM134.845 48.384C133.437 48.384 132.231 48.0853 131.229 47.488C130.247 46.8693 129.501 46.016 128.989 44.928C128.477 43.84 128.221 42.5707 128.221 41.12V30.528H133.021V40.736C133.021 41.3973 133.149 41.984 133.405 42.496C133.682 42.9867 134.066 43.3707 134.557 43.648C135.047 43.9253 135.602 44.064 136.22 44.064C136.861 44.064 137.415 43.9253 137.885 43.648C138.375 43.3707 138.749 42.9867 139.005 42.496C139.282 41.984 139.421 41.3973 139.421 40.736V30.528H144.221V48H139.741V44.544L139.997 45.312C139.591 46.3573 138.93 47.136 138.013 47.648C137.117 48.1387 136.061 48.384 134.845 48.384ZM156.145 48.384C154.289 48.384 152.678 47.9787 151.313 47.168C149.947 46.336 148.891 45.2267 148.145 43.84C147.398 42.4533 147.025 40.9173 147.025 39.232C147.025 37.4827 147.409 35.9253 148.177 34.56C148.966 33.1947 150.022 32.1173 151.345 31.328C152.667 30.5387 154.161 30.144 155.825 30.144C157.211 30.144 158.438 30.368 159.505 30.816C160.571 31.2427 161.467 31.8507 162.193 32.64C162.939 33.4293 163.505 34.3467 163.889 35.392C164.273 36.416 164.465 37.536 164.465 38.752C164.465 39.0933 164.443 39.4347 164.401 39.776C164.379 40.096 164.326 40.3733 164.241 40.608H151.153V37.088H161.521L159.249 38.752C159.462 37.8347 159.451 37.024 159.217 36.32C158.982 35.5947 158.566 35.0293 157.969 34.624C157.393 34.1973 156.678 33.984 155.825 33.984C154.993 33.984 154.278 34.1867 153.681 34.592C153.083 34.9973 152.635 35.5947 152.337 36.384C152.038 37.1733 151.921 38.1333 151.985 39.264C151.899 40.2453 152.017 41.1093 152.337 41.856C152.657 42.6027 153.147 43.1893 153.809 43.616C154.47 44.0213 155.27 44.224 156.209 44.224C157.062 44.224 157.787 44.0533 158.385 43.712C159.003 43.3707 159.483 42.9013 159.825 42.304L163.665 44.128C163.323 44.9813 162.779 45.728 162.033 46.368C161.307 47.008 160.443 47.5093 159.441 47.872C158.438 48.2133 157.339 48.384 156.145 48.384Z" fill="black" fill-opacity="0.9"/>
<path d="M34.9088 48.384C33.2021 48.384 31.6128 48.0747 30.1408 47.456C28.6901 46.8373 27.4208 45.9733 26.3328 44.864C25.2448 43.7547 24.3914 42.4533 23.7728 40.96C23.1754 39.4667 22.8768 37.8347 22.8768 36.064C22.8768 34.2933 23.1754 32.6613 23.7728 31.168C24.3701 29.6533 25.2128 28.352 26.3008 27.264C27.3888 26.1547 28.6581 25.3013 30.1088 24.704C31.5808 24.0853 33.1808 23.776 34.9088 23.776C36.6368 23.776 38.1834 24.064 39.5487 24.64C40.9354 25.216 42.1088 25.984 43.0688 26.944C44.0288 27.904 44.7114 28.9707 45.1168 30.144L40.7328 32.256C40.3274 31.104 39.6128 30.1547 38.5888 29.408C37.5861 28.64 36.3594 28.256 34.9088 28.256C33.5008 28.256 32.2634 28.5867 31.1968 29.248C30.1301 29.9093 29.2981 30.8267 28.7008 32C28.1248 33.152 27.8368 34.5067 27.8368 36.064C27.8368 37.6213 28.1248 38.9867 28.7008 40.16C29.2981 41.3333 30.1301 42.2507 31.1968 42.912C32.2634 43.5733 33.5008 43.904 34.9088 43.904C36.3594 43.904 37.5861 43.5307 38.5888 42.784C39.6128 42.016 40.3274 41.056 40.7328 39.904L45.1168 42.016C44.7114 43.1893 44.0288 44.256 43.0688 45.216C42.1088 46.176 40.9354 46.944 39.5487 47.52C38.1834 48.096 36.6368 48.384 34.9088 48.384ZM56.307 48.384C54.579 48.384 53.0003 47.9893 51.571 47.2C50.163 46.4107 49.0323 45.3333 48.179 43.968C47.347 42.5813 46.931 41.0133 46.931 39.264C46.931 37.4933 47.347 35.9253 48.179 34.56C49.0323 33.1947 50.163 32.1173 51.571 31.328C53.0003 30.5387 54.579 30.144 56.307 30.144C58.035 30.144 59.603 30.5387 61.011 31.328C62.419 32.1173 63.539 33.1947 64.371 34.56C65.2243 35.9253 65.651 37.4933 65.651 39.264C65.651 41.0133 65.2243 42.5813 64.371 43.968C63.539 45.3333 62.419 46.4107 61.011 47.2C59.603 47.9893 58.035 48.384 56.307 48.384ZM56.307 44.064C57.1817 44.064 57.939 43.8613 58.579 43.456C59.2403 43.0507 59.7523 42.4853 60.115 41.76C60.499 41.0347 60.691 40.2027 60.691 39.264C60.691 38.3253 60.499 37.504 60.115 36.8C59.7523 36.0747 59.2403 35.5093 58.579 35.104C57.939 34.6773 57.1817 34.464 56.307 34.464C55.4323 34.464 54.6643 34.6773 54.003 35.104C53.3417 35.5093 52.819 36.0747 52.435 36.8C52.0723 37.504 51.891 38.3253 51.891 39.264C51.891 40.2027 52.0723 41.0347 52.435 41.76C52.819 42.4853 53.3417 43.0507 54.003 43.456C54.6643 43.8613 55.4323 44.064 56.307 44.064ZM68.4788 48V30.528H72.9588V33.984L72.7028 33.216C73.1081 32.1707 73.7588 31.4027 74.6548 30.912C75.5721 30.4 76.6388 30.144 77.8548 30.144C79.1774 30.144 80.3294 30.4213 81.3108 30.976C82.3134 31.5307 83.0921 32.3093 83.6468 33.312C84.2014 34.2933 84.4788 35.4453 84.4788 36.768V48H79.6788V37.792C79.6788 37.1093 79.5401 36.5227 79.2628 36.032C79.0068 35.5413 78.6334 35.1573 78.1428 34.88C77.6734 34.6027 77.1188 34.464 76.4788 34.464C75.8601 34.464 75.3054 34.6027 74.8148 34.88C74.3241 35.1573 73.9401 35.5413 73.6628 36.032C73.4068 36.5227 73.2788 37.1093 73.2788 37.792V48H68.4788ZM96.051 48.192C93.939 48.192 92.2963 47.6267 91.123 46.496C89.971 45.344 89.395 43.744 89.395 41.696V34.688H86.451V30.528H86.611C87.507 30.528 88.1897 30.304 88.659 29.856C89.1497 29.408 89.395 28.736 89.395 27.84V26.56H94.195V30.528H98.291V34.688H94.195V41.376C94.195 41.9733 94.3017 42.4747 94.515 42.88C94.7283 43.264 95.059 43.552 95.507 43.744C95.955 43.936 96.5097 44.032 97.171 44.032C97.3203 44.032 97.491 44.0213 97.683 44C97.875 43.9787 98.0777 43.9573 98.291 43.936V48C97.971 48.0427 97.6083 48.0853 97.203 48.128C96.7977 48.1707 96.4137 48.192 96.051 48.192ZM101.104 48V30.528H105.904V48H101.104ZM101.104 28.96V24.16H105.904V28.96H101.104ZM109.416 48V30.528H113.896V33.984L113.64 33.216C114.046 32.1707 114.696 31.4027 115.592 30.912C116.51 30.4 117.576 30.144 118.792 30.144C120.115 30.144 121.267 30.4213 122.248 30.976C123.251 31.5307 124.03 32.3093 124.584 33.312C125.139 34.2933 125.416 35.4453 125.416 36.768V48H120.616V37.792C120.616 37.1093 120.478 36.5227 120.2 36.032C119.944 35.5413 119.571 35.1573 119.08 34.88C118.611 34.6027 118.056 34.464 117.416 34.464C116.798 34.464 116.243 34.6027 115.752 34.88C115.262 35.1573 114.878 35.5413 114.6 36.032C114.344 36.5227 114.216 37.1093 114.216 37.792V48H109.416ZM134.845 48.384C133.437 48.384 132.231 48.0853 131.229 47.488C130.247 46.8693 129.501 46.016 128.989 44.928C128.477 43.84 128.221 42.5707 128.221 41.12V30.528H133.021V40.736C133.021 41.3973 133.149 41.984 133.405 42.496C133.682 42.9867 134.066 43.3707 134.557 43.648C135.047 43.9253 135.602 44.064 136.22 44.064C136.861 44.064 137.415 43.9253 137.885 43.648C138.375 43.3707 138.749 42.9867 139.005 42.496C139.282 41.984 139.421 41.3973 139.421 40.736V30.528H144.221V48H139.741V44.544L139.997 45.312C139.591 46.3573 138.93 47.136 138.013 47.648C137.117 48.1387 136.061 48.384 134.845 48.384ZM156.145 48.384C154.289 48.384 152.678 47.9787 151.313 47.168C149.947 46.336 148.891 45.2267 148.145 43.84C147.398 42.4533 147.025 40.9173 147.025 39.232C147.025 37.4827 147.409 35.9253 148.177 34.56C148.966 33.1947 150.022 32.1173 151.345 31.328C152.667 30.5387 154.161 30.144 155.825 30.144C157.211 30.144 158.438 30.368 159.505 30.816C160.571 31.2427 161.467 31.8507 162.193 32.64C162.939 33.4293 163.505 34.3467 163.889 35.392C164.273 36.416 164.465 37.536 164.465 38.752C164.465 39.0933 164.443 39.4347 164.401 39.776C164.379 40.096 164.326 40.3733 164.241 40.608H151.153V37.088H161.521L159.249 38.752C159.462 37.8347 159.451 37.024 159.217 36.32C158.982 35.5947 158.566 35.0293 157.969 34.624C157.393 34.1973 156.678 33.984 155.825 33.984C154.993 33.984 154.278 34.1867 153.681 34.592C153.083 34.9973 152.635 35.5947 152.337 36.384C152.038 37.1733 151.921 38.1333 151.985 39.264C151.899 40.2453 152.017 41.1093 152.337 41.856C152.657 42.6027 153.147 43.1893 153.809 43.616C154.47 44.0213 155.27 44.224 156.209 44.224C157.062 44.224 157.787 44.0533 158.385 43.712C159.003 43.3707 159.483 42.9013 159.825 42.304L163.665 44.128C163.323 44.9813 162.779 45.728 162.033 46.368C161.307 47.008 160.443 47.5093 159.441 47.872C158.438 48.2133 157.339 48.384 156.145 48.384Z" fill="url(#paint1_radial_2122_331)" fill-opacity="0.7"/>
<rect x="329" y="8" width="57" height="57" rx="28.5" fill="#0C0C0C"/>
<path d="M357.726 31.7061C356.647 31.3021 355.505 31.0317 354.353 31.0286C353.175 31.0283 352.012 31.3103 350.907 31.7197C347.72 32.9081 344.965 35.2176 343.241 38.1459C341.518 41.0743 340.83 44.6067 341.336 47.9652C341.532 49.2683 341.914 50.5646 342.666 51.6462C343.417 52.7236 344.586 53.5642 345.893 53.7037C347.898 53.9227 349.678 52.5556 351.313 51.3765C351.317 51.3753 351.326 51.373 351.328 51.3635C352.198 50.737 353.402 50.8467 354.158 51.6045C355.3 52.7484 356.972 54.3051 357.893 54.6189C359.719 55.2457 361.872 55.0746 363.404 53.897C364.331 53.1832 364.974 52.1582 365.473 51.0971C367.124 47.5527 367.271 43.3323 365.833 39.699C364.396 36.0658 361.381 33.076 357.722 31.7072L357.726 31.7061Z" fill="white"/>
<path d="M367.031 25.8601C367.459 22.6998 366.103 19.9087 364.008 19.6249C361.913 19.341 359.868 21.6733 359.44 24.8335C359.013 27.9938 360.369 30.785 362.464 31.0688C364.558 31.3526 366.604 29.0204 367.031 25.8601Z" fill="white"/>
<path d="M374.258 30.0298C372.313 29.2027 369.722 30.911 368.474 33.8419C367.227 36.777 367.795 39.827 369.74 40.654C371.685 41.4811 374.276 39.7728 375.524 36.8419C376.771 33.9068 376.204 30.8609 374.258 30.0298Z" fill="white"/>
<path d="M348.014 23.3383C347.629 26.5048 349.016 29.2784 351.116 29.5338C353.217 29.7893 355.233 27.4337 355.619 24.2671C356.004 21.1006 354.617 18.327 352.517 18.0716C350.417 17.8162 348.4 20.1718 348.014 23.3383Z" fill="white"/>
<path d="M343.833 29.7615C343.366 26.6073 341.293 24.3015 339.201 24.6083C337.109 24.9151 335.79 27.7221 336.253 30.8775C336.72 34.0317 338.793 36.3375 340.885 36.0307C342.977 35.7239 344.295 32.9169 343.833 29.7615Z" fill="white"/>
</g>
<defs>
<filter id="filter0_i_2122_331" x="-3" y="-4" width="403" height="77" filterUnits="userSpaceOnUse" color-interpolation-filters="sRGB">
<feFlood flood-opacity="0" result="BackgroundImageFix"/>
<feBlend mode="normal" in="SourceGraphic" in2="BackgroundImageFix" result="shape"/>
<feColorMatrix in="SourceAlpha" type="matrix" values="0 0 0 0 0 0 0 0 0 0 0 0 0 0 0 0 0 0 127 0" result="hardAlpha"/>
<feOffset dx="-3" dy="-4"/>
<feGaussianBlur stdDeviation="3.5"/>
<feComposite in2="hardAlpha" operator="arithmetic" k2="-1" k3="1"/>
<feColorMatrix type="matrix" values="0 0 0 0 1 0 0 0 0 1 0 0 0 0 1 0 0 0 0.15 0"/>
<feBlend mode="normal" in2="shape" result="effect1_innerShadow_2122_331"/>
</filter>
<radialGradient id="paint0_radial_2122_331" cx="0" cy="0" r="1" gradientUnits="userSpaceOnUse" gradientTransform="translate(71.5) rotate(14.9169) scale(234.772 127.483)">
<stop stop-color="white"/>
<stop offset="0.170536" stop-color="white" stop-opacity="0"/>
<stop offset="1" stop-color="white" stop-opacity="0"/>
</radialGradient>
<radialGradient id="paint1_radial_2122_331" cx="0" cy="0" r="1" gradientUnits="userSpaceOnUse" gradientTransform="translate(67.3525 22.8689) rotate(22.2194) scale(66.7608 50.3905)">
<stop stop-color="white"/>
<stop offset="0.697917" stop-color="white" stop-opacity="0"/>
<stop offset="1" stop-color="white" stop-opacity="0"/>
</radialGradient>
</defs>
</svg>
