<svg width="36" height="36" viewBox="0 0 36 36" fill="none" xmlns="http://www.w3.org/2000/svg">
<circle cx="18" cy="18" r="18" fill="#67FF76" fill-opacity="0.47"/>
<path d="M17.9994 23.5156C20.7972 23.5156 23.0734 20.7607 23.0734 17.3746C23.0719 15.7461 22.5368 14.1848 21.5856 13.0333C20.6344 11.8818 19.3446 11.2341 17.9994 11.2322C15.2022 11.2322 12.9266 13.9877 12.9266 17.3746C12.9287 18.9239 13.4127 20.4154 14.2822 21.5524L13.7575 23.9221C13.7265 24.062 13.7305 24.2099 13.7689 24.347C13.8074 24.4842 13.8786 24.6045 13.9735 24.6926C14.0685 24.7808 14.1829 24.8329 14.3023 24.8423C14.4217 24.8518 14.5407 24.8181 14.6443 24.7456L16.6965 23.3102C17.1216 23.4468 17.5596 23.5159 17.9994 23.5156ZM16.3161 21.8852L15.3043 22.593L15.5409 21.5245C15.5694 21.396 15.5684 21.2606 15.5381 21.1328C15.5077 21.005 15.4492 20.8896 15.3688 20.799C14.9783 20.3631 14.667 19.8335 14.4548 19.244C14.2426 18.6544 14.1341 18.0179 14.1362 17.3748C14.1365 16.3876 14.3949 15.4259 14.8744 14.6275C15.3539 13.829 16.0299 13.2348 16.8055 12.9299C17.5811 12.6251 18.4165 12.6252 19.192 12.9304C19.9676 13.2356 20.6434 13.8301 21.1227 14.6288C21.6019 15.4274 21.8601 16.3892 21.8601 17.3764C21.8601 18.3636 21.602 19.3254 21.1227 20.1241C20.6435 20.9227 19.9677 21.5173 19.1921 21.8225C18.4166 22.1277 17.5812 22.1279 16.8056 21.823C16.725 21.7912 16.6397 21.7803 16.5554 21.791C16.471 21.8017 16.3895 21.8338 16.3161 21.8851V21.8852ZM27.992 17.8975C27.9986 17.5979 28.0054 17.2881 27.9936 16.9655C27.9616 16.0643 27.6421 15.2133 27.1022 14.5916C26.5623 13.97 25.8442 13.6262 25.0991 13.6326C23.9032 10.3206 21.1712 8 17.9994 8C14.8277 8 12.0967 10.3206 10.9008 13.6326C10.1559 13.6262 9.43795 13.9698 8.89811 14.5913C8.35828 15.2127 8.03864 16.0634 8.00648 16.9644C7.99462 17.2881 8.00143 17.598 8.00801 17.8976C8.01498 18.2142 8.02216 18.5416 8.00873 18.9095C7.97671 19.8319 8.24815 20.7319 8.76352 21.4124C9.27888 22.0928 9.99612 22.498 10.7579 22.5393C10.8031 22.5418 10.8481 22.5431 10.893 22.5431C11.2727 22.5433 11.6486 22.4514 11.9984 22.2726C12.1446 22.1985 12.2608 22.0578 12.322 21.8808C12.3833 21.7039 12.3845 21.5049 12.3256 21.3268C12.3183 21.2922 12.3071 21.259 12.2924 21.2281C11.7505 20.0497 11.4661 18.7233 11.4661 17.3746C11.4661 13.0129 14.397 9.46439 17.9994 9.46439C21.6019 9.46439 24.5338 13.0131 24.5338 17.3746C24.538 19.2208 24.007 21.0102 23.0332 22.4311C22.0593 23.852 20.7045 24.8141 19.2049 25.1498C19.0469 24.717 18.769 24.3646 18.4191 24.1535C18.0693 23.9424 17.6695 23.8859 17.2889 23.9938C16.9083 24.1016 16.5707 24.3671 16.3347 24.7443C16.0986 25.1214 15.9788 25.5866 15.9959 26.0593C16.0131 26.5321 16.1662 26.9827 16.4287 27.3333C16.6912 27.6839 17.0466 27.9125 17.4336 27.9795C17.8206 28.0466 18.2147 27.9478 18.5479 27.7004C18.8811 27.4529 19.1324 27.0724 19.2584 26.6244C20.3237 26.4111 21.3405 25.9309 22.2437 25.2145C23.1469 24.498 23.9165 23.5613 24.5034 22.464C24.7015 22.5164 24.9036 22.5429 25.1063 22.5431C25.1507 22.5431 25.1953 22.5419 25.2399 22.5394C25.6175 22.5197 25.9882 22.4102 26.3309 22.2171C26.6735 22.0239 26.9813 21.751 27.2368 21.4138C27.4923 21.0767 27.6904 20.6819 27.8199 20.252C27.9493 19.8222 28.0075 19.3657 27.9912 18.9086C27.9778 18.5418 27.985 18.2141 27.992 17.8975ZM10.8117 21.0763C10.3701 21.0527 9.95424 20.8181 9.65534 20.4238C9.35643 20.0296 9.19888 19.5079 9.21725 18.9732C9.23253 18.5545 9.22443 18.1849 9.21725 17.8587C9.21096 17.5719 9.20515 17.3011 9.21503 17.0282C9.23065 16.5934 9.36183 16.1763 9.58905 15.839C9.81627 15.5017 10.1274 15.2622 10.4761 15.1562C10.0948 17.0538 10.2118 19.048 10.8108 20.8613L10.81 20.8617C10.8336 20.9343 10.8579 21.0066 10.883 21.0785C10.8594 21.0784 10.8357 21.0777 10.8117 21.0763ZM17.6714 26.5356C17.579 26.5356 17.4886 26.5025 17.4118 26.4403C17.3349 26.3782 17.275 26.2898 17.2396 26.1865C17.2043 26.0831 17.195 25.9694 17.213 25.8597C17.231 25.7499 17.2755 25.6491 17.3408 25.57C17.4062 25.4909 17.4894 25.437 17.5801 25.4151C17.6707 25.3933 17.7647 25.4044 17.8501 25.4472C17.9354 25.49 18.0084 25.5625 18.0598 25.6555C18.1112 25.7485 18.1386 25.8579 18.1386 25.9697V25.9708C18.1383 26.1206 18.089 26.2642 18.0014 26.3701C17.9138 26.4759 17.7952 26.5355 17.6714 26.5356ZM26.7827 18.9722C26.7921 19.2373 26.7583 19.502 26.6831 19.7513C26.608 20.0005 26.493 20.2294 26.3447 20.4249C26.1964 20.6203 26.0178 20.7784 25.819 20.8902C25.6203 21.002 25.4052 21.0653 25.1862 21.0764C25.163 21.0778 25.1398 21.0785 25.1167 21.0786C25.1177 21.0759 25.1179 21.0728 25.1172 21.0699C25.7775 19.2038 25.9202 17.1289 25.5239 15.1563C25.8727 15.2623 26.184 15.5019 26.4112 15.8394C26.6384 16.1769 26.7695 16.5942 26.785 17.0293C26.7949 17.3011 26.789 17.5719 26.7827 17.8586C26.7755 18.1848 26.7674 18.5544 26.7827 18.9722ZM16.5863 17.3028C16.5882 17.3267 16.5891 17.3506 16.5891 17.3746C16.5891 17.3987 16.5882 17.4228 16.5863 17.4468C16.5842 17.4702 16.581 17.4942 16.5774 17.5176C16.5738 17.541 16.5685 17.5644 16.5629 17.5874C16.5572 17.6103 16.5504 17.6328 16.5427 17.6547C16.535 17.6767 16.5266 17.6987 16.5173 17.7197C16.508 17.7407 16.4979 17.7612 16.4871 17.7812C16.4763 17.8012 16.4646 17.8204 16.452 17.8388C16.4395 17.8578 16.4258 17.8754 16.4121 17.8925C16.398 17.9095 16.3832 17.9256 16.3677 17.9408C16.3524 17.9559 16.3363 17.9701 16.3201 17.9837C16.3036 17.9964 16.2867 18.0091 16.2689 18.0204C16.2516 18.0316 16.2339 18.0417 16.2157 18.0506C16.1975 18.0599 16.1789 18.0681 16.16 18.075C16.1411 18.0819 16.1217 18.0877 16.1024 18.0926C16.0831 18.0974 16.0635 18.101 16.0439 18.1033C16.0042 18.1079 15.9643 18.1079 15.9246 18.1033C15.9049 18.101 15.8854 18.0974 15.8661 18.0926C15.8467 18.0877 15.8274 18.0819 15.8084 18.075C15.7895 18.0681 15.771 18.0599 15.7528 18.0506C15.7346 18.0417 15.7168 18.0316 15.6996 18.0204C15.6818 18.0091 15.6649 17.9964 15.6483 17.9837C15.6322 17.9701 15.6161 17.9559 15.6008 17.9408C15.5853 17.9256 15.5705 17.9095 15.5564 17.8925C15.5427 17.8754 15.529 17.8578 15.5165 17.8388C15.5039 17.8204 15.4922 17.8012 15.4814 17.7812C15.4707 17.7612 15.4606 17.7407 15.4512 17.7197C15.4419 17.6987 15.4334 17.6767 15.4258 17.6547C15.4181 17.6328 15.4117 17.6103 15.4056 17.5874C15.3996 17.5644 15.3951 17.541 15.3911 17.5176C15.3831 17.4705 15.3792 17.4226 15.3794 17.3746C15.3794 17.3506 15.3806 17.3267 15.3822 17.3028C15.3838 17.2789 15.3875 17.255 15.3911 17.2315C15.3947 17.2081 15.4 17.1852 15.4056 17.1622C15.4112 17.1393 15.4181 17.1168 15.4258 17.0949C15.4334 17.0729 15.4419 17.0509 15.4512 17.0299C15.4698 16.9877 15.4917 16.9476 15.5165 16.9104C15.529 16.8918 15.5427 16.8737 15.5564 16.8571C15.5705 16.8401 15.5853 16.824 15.6008 16.8088C15.6161 16.7937 15.6322 16.779 15.6483 16.7659C15.6649 16.7526 15.682 16.7404 15.6996 16.7293C15.7169 16.718 15.7346 16.7078 15.7528 16.6985C15.7709 16.6897 15.7899 16.6814 15.8084 16.6746C15.8274 16.6675 15.8466 16.6617 15.8661 16.657C15.9441 16.6378 16.0244 16.6378 16.1024 16.657C16.1218 16.6617 16.1411 16.6675 16.16 16.6746C16.1786 16.6814 16.1975 16.6897 16.2157 16.6985C16.2338 16.7073 16.2516 16.718 16.2689 16.7293C16.2865 16.7404 16.3036 16.7526 16.3201 16.7659C16.3363 16.779 16.3524 16.7937 16.3677 16.8088C16.3832 16.824 16.398 16.8401 16.4121 16.8571C16.4258 16.8737 16.4395 16.8918 16.452 16.9104C16.4768 16.9476 16.4987 16.9877 16.5173 17.0299C16.5266 17.0509 16.535 17.0729 16.5427 17.0949C16.5504 17.1168 16.5568 17.1393 16.5629 17.1622C16.5689 17.1852 16.5734 17.2086 16.5774 17.2315C16.5814 17.2545 16.5842 17.2787 16.5863 17.3026V17.3028ZM17.3951 17.3746C17.3951 17.2784 17.4107 17.1833 17.441 17.0944C17.4713 17.0056 17.5158 16.9249 17.5719 16.8569C17.6281 16.7889 17.6947 16.735 17.768 16.6981C17.8414 16.6613 17.92 16.6424 17.9994 16.6424H18.0005C18.1201 16.6425 18.237 16.6856 18.3364 16.7661C18.4358 16.8466 18.5132 16.961 18.5589 17.0948C18.6046 17.2286 18.6165 17.3758 18.5931 17.5178C18.5697 17.6598 18.5121 17.7902 18.4275 17.8925C18.3429 17.9949 18.2351 18.0645 18.1178 18.0927C18.0005 18.1209 17.8789 18.1064 17.7684 18.051C17.6579 17.9955 17.5635 17.9017 17.497 17.7813C17.4306 17.6609 17.3951 17.5193 17.3951 17.3746ZM19.4137 17.4466C19.4117 17.4226 19.4108 17.3985 19.4109 17.3744C19.4108 17.3504 19.4117 17.3265 19.4137 17.3026C19.4157 17.2787 19.4189 17.2548 19.4226 17.2313C19.4262 17.2079 19.4314 17.185 19.4371 17.162C19.4428 17.1391 19.4495 17.1167 19.4572 17.0947C19.4645 17.0727 19.4734 17.0507 19.4822 17.0297C19.5012 16.9876 19.5232 16.9476 19.548 16.9102C19.5605 16.8916 19.5742 16.8735 19.5879 16.857C19.602 16.8399 19.6168 16.8238 19.6322 16.8086C19.6474 16.7932 19.6633 16.7789 19.6798 16.7657C19.6964 16.7527 19.7133 16.7405 19.7306 16.7291C19.748 16.7178 19.7661 16.7076 19.7843 16.6983C19.8024 16.689 19.8214 16.6812 19.8399 16.6744C19.8589 16.6673 19.8781 16.6615 19.8976 16.6568C19.9559 16.6425 20.0157 16.6388 20.075 16.6461C20.0948 16.6484 20.1144 16.652 20.1339 16.6568C20.1532 16.6614 20.1723 16.6673 20.1911 16.6744C20.2101 16.6812 20.229 16.6895 20.2472 16.6983C20.2653 16.7071 20.2831 16.7178 20.3004 16.7291C20.318 16.7402 20.3351 16.7524 20.3516 16.7657C20.3677 16.7789 20.3839 16.7935 20.3992 16.8086C20.4146 16.8237 20.4293 16.8398 20.4431 16.857C20.4573 16.8735 20.4706 16.8916 20.4835 16.9102C20.4956 16.9287 20.5077 16.9482 20.5185 16.9682C20.5295 16.9881 20.5396 17.0086 20.5488 17.0297C20.5581 17.0507 20.5665 17.0727 20.5742 17.0947C20.5818 17.1167 20.5884 17.1392 20.5939 17.162C20.6 17.1848 20.6048 17.2079 20.6085 17.2313C20.6126 17.2549 20.6156 17.2787 20.6173 17.3026C20.6194 17.3264 20.6205 17.3504 20.6206 17.3744C20.6205 17.3985 20.6194 17.4226 20.6173 17.4466C20.6156 17.4704 20.6126 17.494 20.6085 17.5174C20.6048 17.541 20.6 17.5643 20.5939 17.5872C20.5883 17.61 20.5817 17.6325 20.5742 17.6546C20.5665 17.6765 20.5581 17.6985 20.5488 17.7195C20.5395 17.7405 20.5294 17.761 20.5185 17.781C20.5077 17.801 20.4956 17.8205 20.4835 17.8386C20.4706 17.8576 20.4573 17.8752 20.4431 17.8923C20.4293 17.9094 20.4146 17.9255 20.3992 17.9406C20.3839 17.9557 20.3677 17.9699 20.3516 17.9831C20.3351 17.9965 20.318 18.0088 20.3004 18.0202C20.2831 18.0314 20.2654 18.0415 20.2472 18.0504C20.2289 18.0598 20.2102 18.0679 20.1911 18.0748C20.1726 18.0817 20.1532 18.0875 20.1339 18.0924C20.095 18.102 20.0554 18.1067 20.0157 18.1066C19.9958 18.1066 19.9759 18.1055 19.956 18.1031C19.9364 18.1008 19.9169 18.0972 19.8976 18.0924C19.8782 18.0875 19.8589 18.0817 19.8399 18.0748C19.821 18.0679 19.8025 18.0597 19.7843 18.0504C19.7659 18.0415 19.748 18.0314 19.7306 18.0202C19.7133 18.0089 19.6964 17.9962 19.6798 17.9831C19.6633 17.97 19.6474 17.9558 19.6322 17.9406C19.6168 17.9254 19.602 17.9093 19.5879 17.8923C19.5742 17.8752 19.5605 17.8576 19.548 17.8386C19.5354 17.8202 19.5237 17.801 19.5129 17.781C19.502 17.761 19.4915 17.7405 19.4822 17.7195C19.473 17.6985 19.4645 17.6765 19.4572 17.6546C19.4496 17.6325 19.4428 17.6101 19.4371 17.5872C19.4314 17.5642 19.4266 17.5408 19.4226 17.5174C19.4185 17.494 19.4157 17.47 19.4137 17.4466Z" fill="black"/>
</svg>
