<svg width="29" height="26" viewBox="0 0 29 26" fill="none" xmlns="http://www.w3.org/2000/svg">
<path fill-rule="evenodd" clip-rule="evenodd" d="M0 9.40491C0 8.92752 0.189642 8.46968 0.527208 8.13212C0.864773 7.79455 1.32261 7.60491 1.8 7.60491H20.3544C20.8318 7.60491 21.2896 7.79455 21.6272 8.13212C21.9648 8.46968 22.1544 8.92752 22.1544 9.40491C22.1544 9.8823 21.9648 10.3401 21.6272 10.6777C21.2896 11.0153 20.8318 11.2049 20.3544 11.2049H1.8C1.32261 11.2049 0.864773 11.0153 0.527208 10.6777C0.189642 10.3401 0 9.8823 0 9.40491ZM0 2.20491C0 1.72752 0.189642 1.26968 0.527208 0.932115C0.864773 0.594549 1.32261 0.404907 1.8 0.404907H27C27.4774 0.404907 27.9352 0.594549 28.2728 0.932115C28.6104 1.26968 28.8 1.72752 28.8 2.20491C28.8 2.6823 28.6104 3.14013 28.2728 3.4777C27.9352 3.81526 27.4774 4.00491 27 4.00491H1.8C1.32261 4.00491 0.864773 3.81526 0.527208 3.4777C0.189642 3.14013 0 2.6823 0 2.20491ZM0 16.6049C0 16.1275 0.189642 15.6697 0.527208 15.3321C0.864773 14.9946 1.32261 14.8049 1.8 14.8049H27C27.4774 14.8049 27.9352 14.9946 28.2728 15.3321C28.6104 15.6697 28.8 16.1275 28.8 16.6049C28.8 17.0823 28.6104 17.5401 28.2728 17.8777C27.9352 18.2153 27.4774 18.4049 27 18.4049H1.8C1.32261 18.4049 0.864773 18.2153 0.527208 17.8777C0.189642 17.5401 0 17.0823 0 16.6049ZM0 23.8049C0 23.3275 0.189642 22.8697 0.527208 22.5321C0.864773 22.1946 1.32261 22.0049 1.8 22.0049H20.3544C20.8318 22.0049 21.2896 22.1946 21.6272 22.5321C21.9648 22.8697 22.1544 23.3275 22.1544 23.8049C22.1544 24.2823 21.9648 24.7401 21.6272 25.0777C21.2896 25.4153 20.8318 25.6049 20.3544 25.6049H1.8C1.32261 25.6049 0.864773 25.4153 0.527208 25.0777C0.189642 24.7401 0 24.2823 0 23.8049Z" fill="#8E8E8E"/>
</svg>
