<svg width="56" height="27" viewBox="0 0 56 27" fill="none" xmlns="http://www.w3.org/2000/svg">
<g filter="url(#filter0_i_2111_234)">
<rect width="56" height="27" rx="9" fill="#FFC700"/>
<rect width="56" height="27" rx="9" fill="url(#paint0_radial_2111_234)" fill-opacity="0.7"/>
<path d="M15.008 18V7.57H21.938V9.25H16.912V11.924H21.658V13.604H16.912V16.32H21.938V18H15.008ZM26.7222 18.168C25.9848 18.168 25.3268 17.9953 24.7482 17.65C24.1695 17.2953 23.7122 16.8147 23.3762 16.208C23.0402 15.6013 22.8722 14.9293 22.8722 14.192C22.8722 13.4453 23.0402 12.7733 23.3762 12.176C23.7122 11.5787 24.1695 11.1027 24.7482 10.748C25.3362 10.3933 25.9895 10.216 26.7082 10.216C27.2868 10.216 27.8002 10.3327 28.2482 10.566C28.7055 10.79 29.0648 11.1073 29.3262 11.518L29.0462 11.896V7.402H30.8802V18H29.1442V16.53L29.3402 16.894C29.0788 17.3047 28.7148 17.622 28.2482 17.846C27.7815 18.0607 27.2728 18.168 26.7222 18.168ZM26.9182 16.488C27.3382 16.488 27.7068 16.39 28.0242 16.194C28.3415 15.998 28.5888 15.7273 28.7662 15.382C28.9528 15.0367 29.0462 14.64 29.0462 14.192C29.0462 13.7533 28.9528 13.3613 28.7662 13.016C28.5888 12.6613 28.3415 12.386 28.0242 12.19C27.7068 11.994 27.3382 11.896 26.9182 11.896C26.5075 11.896 26.1388 11.9987 25.8122 12.204C25.4855 12.4 25.2288 12.6707 25.0422 13.016C24.8648 13.352 24.7762 13.744 24.7762 14.192C24.7762 14.64 24.8648 15.0367 25.0422 15.382C25.2288 15.7273 25.4855 15.998 25.8122 16.194C26.1388 16.39 26.5075 16.488 26.9182 16.488ZM32.5864 18V10.384H34.4204V18H32.5864ZM32.5864 9.53V7.57H34.4204V9.53H32.5864ZM39.5858 18.084C38.7271 18.084 38.0598 17.8507 37.5838 17.384C37.1171 16.908 36.8838 16.2407 36.8838 15.382V12.022H35.5678V10.384H35.7078C36.0811 10.384 36.3704 10.286 36.5758 10.09C36.7811 9.894 36.8838 9.60933 36.8838 9.236V8.648H38.7178V10.384H40.4678V12.022H38.7178V15.284C38.7178 15.536 38.7598 15.7507 38.8438 15.928C38.9371 16.1053 39.0771 16.2407 39.2638 16.334C39.4598 16.4273 39.7071 16.474 40.0058 16.474C40.0711 16.474 40.1458 16.4693 40.2298 16.46C40.3231 16.4507 40.4118 16.4413 40.4958 16.432V18C40.3651 18.0187 40.2158 18.0373 40.0478 18.056C39.8798 18.0747 39.7258 18.084 39.5858 18.084Z" fill="white"/>
</g>
<defs>
<filter id="filter0_i_2111_234" x="-3" y="-4" width="59" height="31" filterUnits="userSpaceOnUse" color-interpolation-filters="sRGB">
<feFlood flood-opacity="0" result="BackgroundImageFix"/>
<feBlend mode="normal" in="SourceGraphic" in2="BackgroundImageFix" result="shape"/>
<feColorMatrix in="SourceAlpha" type="matrix" values="0 0 0 0 0 0 0 0 0 0 0 0 0 0 0 0 0 0 127 0" result="hardAlpha"/>
<feOffset dx="-3" dy="-4"/>
<feGaussianBlur stdDeviation="3.5"/>
<feComposite in2="hardAlpha" operator="arithmetic" k2="-1" k3="1"/>
<feColorMatrix type="matrix" values="0 0 0 0 1 0 0 0 0 1 0 0 0 0 1 0 0 0 0.15 0"/>
<feBlend mode="normal" in2="shape" result="effect1_innerShadow_2111_234"/>
</filter>
<radialGradient id="paint0_radial_2111_234" cx="0" cy="0" r="1" gradientUnits="userSpaceOnUse" gradientTransform="translate(17.9016 5.31148) rotate(35.5246) scale(29.3278 29.903)">
<stop stop-color="white"/>
<stop offset="0.697917" stop-color="white" stop-opacity="0"/>
<stop offset="1" stop-color="white" stop-opacity="0"/>
</radialGradient>
</defs>
</svg>
