<svg width="36" height="36" viewBox="0 0 36 36" fill="none" xmlns="http://www.w3.org/2000/svg">
<circle cx="18" cy="18" r="18" fill="#FCFF67" fill-opacity="0.47"/>
<path d="M27.8534 10.2594L25.8532 8.15415C25.6583 7.94881 25.3419 7.94851 25.1467 8.15388C25.1467 8.15401 25.1465 8.15415 25.1463 8.15415L19.1464 14.4701C19.1 14.5189 19.0632 14.5769 19.038 14.6407C19.0129 14.7045 19 14.7729 19 14.842V16.9474C19 17.238 19.2238 17.4736 19.4999 17.4736H21.5C21.6326 17.4736 21.7597 17.4183 21.8534 17.3195L27.8534 11.0037C28.0486 10.7984 28.0487 10.4653 27.8537 10.2598C27.8536 10.2598 27.8536 10.2596 27.8534 10.2594ZM21.2929 16.4211H19.9999V15.0601L25.4999 9.27064L26.7929 10.6316L21.2929 16.4211Z" fill="black"/>
<path d="M26.4999 14.3159C26.2238 14.3159 26 14.5515 26 14.8421V22.2105C25.9992 23.0822 25.3281 23.7886 24.5 23.7896H19.5C19.3918 23.7894 19.2864 23.8263 19.2 23.8948L16 26.4212V24.3159C16 24.0252 15.7762 23.7896 15.5 23.7896H10.5C9.67196 23.7886 9.00083 23.0822 9.00011 22.2107V12.7368C9.00099 11.8653 9.67196 11.1589 10.5 11.158H19.5C19.7761 11.158 20 10.9224 20 10.6317C20 10.3411 19.7762 10.1055 19.5 10.1055H10.5C9.11988 10.1069 8.00135 11.2843 8 12.7368V22.2106C8.00135 23.6633 9.11988 24.8407 10.5 24.8422H15V27.4738C15 27.7644 15.2238 28 15.5 28C15.6082 28 15.7134 27.9631 15.8 27.8948L19.6672 24.8421H24.5001C25.8802 24.8407 26.9986 23.6633 27 22.2105V14.8422C27 14.5515 26.7761 14.3159 26.4999 14.3159Z" fill="black"/>
<path d="M16.4999 13.2632H11.5001C11.2238 13.2632 11 13.4988 11 13.7895C11 14.0801 11.2238 14.3157 11.5001 14.3157H16.4999C16.7761 14.3157 17 14.0801 17 13.7895C17 13.4988 16.7761 13.2632 16.4999 13.2632ZM11.5001 17.4737H16.4999C16.7761 17.4737 17 17.238 17 16.9474C17 16.6567 16.7761 16.4211 16.4999 16.4211H11.5001C11.2238 16.4211 11 16.6567 11 16.9474C11 17.238 11.2238 17.4737 11.5001 17.4737ZM11.5001 20.6315H23.5C23.7762 20.6315 23.9999 20.3959 23.9999 20.1052C23.9999 19.8146 23.7761 19.579 23.5 19.579H11.5001C11.2238 19.579 11 19.8146 11 20.1052C11 20.3959 11.2238 20.6315 11.5001 20.6315Z" fill="black"/>
</svg>
