<svg width="38" height="27" viewBox="0 0 38 27" fill="none" xmlns="http://www.w3.org/2000/svg">
<path d="M22.3334 25.3196H35.0254C36.2575 25.3196 37.2564 24.3207 37.2564 23.0886V2.97459C37.2564 1.74249 36.2575 0.743652 35.0254 0.743652H2.97459C1.74249 0.743652 0.743652 1.74249 0.743652 2.97459V23.0886C0.743652 24.3207 1.74249 25.3196 2.97459 25.3196H15.6666" fill="#BEECE1"/>
<path d="M23.1924 6.31602L22.85 5.12473C22.4484 4.42945 21.4448 4.42945 21.0438 5.12473C21.0438 5.12473 18.9707 9.33791 19.4917 15.0738C19.4917 15.0738 19.7233 19.507 23.0004 19.507C24.0241 19.507 24.9363 19.103 25.5226 18.4741C25.9491 18.017 26.2032 17.4406 26.2032 16.8148H26.2044C26.2044 17.4406 26.4586 18.017 26.8851 18.4741C27.4713 19.1029 28.3835 19.507 29.4073 19.507C32.6844 19.507 32.916 15.0738 32.916 15.0738C33.437 9.33791 31.3639 5.12473 31.3639 5.12473C30.963 4.42945 29.9593 4.42945 29.5577 5.12473L29.2153 6.31602H23.1924Z" fill="#FFD4B5"/>
<path d="M26.9548 16.3344L27.6254 15.173C27.959 14.5951 27.5419 13.8728 26.8747 13.8728H25.5336C24.8664 13.8728 24.4493 14.5951 24.7829 15.173L25.4535 16.3344C25.7871 16.9122 26.6212 16.9122 26.9548 16.3344Z" fill="#A0C8FF"/>
<path d="M31.5916 18.3885C27.4403 20.7906 26.1596 17.4148 26.1596 17.4148C24.2434 20.7536 20.8169 18.2996 20.8169 18.2996C21.0552 19.4807 23.3071 21.7043 26.1596 21.7041C26.1596 21.7041 29.6616 21.863 31.5916 18.3885Z" fill="#FFBE90"/>
<path d="M19 26.0525C19.4099 26.0525 19.7422 25.7202 19.7422 25.3103C19.7422 24.9004 19.4099 24.5681 19 24.5681C18.5901 24.5681 18.2578 24.9004 18.2578 25.3103C18.2578 25.7202 18.5901 26.0525 19 26.0525Z" fill="black"/>
<path d="M35.0255 0H2.97454C1.33438 0 0 1.33438 0 2.97454V23.0886C0 24.7287 1.33438 26.0631 2.97454 26.0631H15.6665C16.0773 26.0631 16.4102 25.7302 16.4102 25.3194C16.4102 24.9087 16.0773 24.5758 15.6665 24.5758H2.97454C2.1545 24.5758 1.48727 23.9086 1.48727 23.0885V2.97447C1.48727 2.15435 2.1545 1.4872 2.97454 1.4872H35.0254C35.8455 1.4872 36.5127 2.15435 36.5127 2.97447V23.0885C36.5127 23.9086 35.8455 24.5758 35.0254 24.5758H22.3334C21.9227 24.5758 21.5897 24.9087 21.5897 25.3194C21.5897 25.7302 21.9227 26.0631 22.3334 26.0631H35.0255C36.6656 26.0631 38 24.7287 38 23.0886V2.97454C38 1.33438 36.6656 0 35.0255 0Z" fill="black"/>
<path d="M31.9246 4.71965C31.4535 3.76304 30.1393 3.51211 29.3034 4.12649C29.0695 4.29846 28.8246 4.55726 28.7428 4.84226L28.5554 5.49405H23.6619L23.4746 4.84226C23.4027 4.59281 23.2021 4.36488 23.0074 4.20012C22.8097 4.03329 22.5776 3.9122 22.3277 3.8455C21.8388 3.7151 21.3014 3.79666 20.8783 4.07595C20.6385 4.23426 20.4205 4.46033 20.2928 4.71965C20.2046 4.89881 18.1424 9.1701 18.6689 15.0252C18.6793 15.2609 18.7829 16.9469 19.6586 18.6463C20.5357 20.3486 22.3599 22.3778 26.0684 22.3778C29.773 22.3778 31.619 20.352 32.5153 18.6526C33.4172 16.9424 33.5365 15.2454 33.5483 15.0293C34.076 9.17196 32.0127 4.89881 31.9246 4.71965ZM21.6127 5.40001C21.6877 5.28661 21.7984 5.26902 21.8596 5.26902C21.9139 5.26902 22.0073 5.28282 22.0804 5.36513L22.3896 6.4413C22.4342 6.59611 22.5278 6.73224 22.6565 6.82913C22.7852 6.92603 22.9419 6.97843 23.103 6.97842H29.1142C29.2752 6.97844 29.4319 6.92604 29.5606 6.82914C29.6893 6.73224 29.7829 6.59611 29.8274 6.4413L30.1368 5.3652C30.2098 5.28282 30.3031 5.26902 30.3575 5.26902H30.3576C30.4188 5.26902 30.5294 5.28653 30.6044 5.39986C30.7701 5.7553 32.54 9.72199 32.0673 14.9267C32.0666 14.9345 32.0678 14.9189 32.0673 14.9267C32.0672 14.9278 32.0674 14.9255 32.0673 14.9267C32.0667 14.9368 32.0049 15.9574 31.5864 16.9314C31.0867 18.094 30.3407 18.6592 29.3057 18.6592C28.5218 18.6592 27.8022 18.3695 27.3311 17.8641C27.1844 17.707 27.0193 17.4797 26.926 17.189C27.1595 17.0512 27.3578 16.8534 27.5006 16.6062L28.1699 15.4471C28.4604 14.9439 28.4604 14.343 28.1699 13.8398C27.8794 13.3366 27.359 13.0362 26.778 13.0362H25.4394C24.8583 13.0362 24.338 13.3366 24.0474 13.8398C23.7569 14.343 23.7568 14.9439 24.0474 15.4471L24.7167 16.6062C24.8593 16.8534 25.0577 17.0512 25.2912 17.189C25.1979 17.4798 25.0327 17.7071 24.8858 17.8645C24.4151 18.3695 23.6955 18.6592 22.9115 18.6592C21.8766 18.6592 21.1306 18.094 20.6309 16.9314C20.2147 15.963 20.1511 14.9474 20.1498 14.9257C20.1496 14.9233 20.1499 14.9281 20.1498 14.9257C20.1494 14.9189 20.1504 14.9324 20.1498 14.9257C19.6767 9.71769 21.4494 5.75025 21.6127 5.40001ZM26.8843 14.7049L26.215 15.864C26.1683 15.945 26.0489 15.945 26.0022 15.864L25.3329 14.7049C25.286 14.6238 25.3465 14.5205 25.4394 14.5205H26.7779C26.8708 14.5205 26.931 14.6239 26.8843 14.7049ZM22.9806 20.1419C24.1486 20.1244 25.2356 19.6661 25.9712 18.8769C26.0185 18.8262 26.0643 18.7741 26.1086 18.7207C26.1527 18.7741 26.1984 18.8261 26.2456 18.8767C26.9677 19.6513 28.0276 20.1068 29.1703 20.1404C28.307 20.641 27.2712 20.8935 26.0683 20.8935C24.8674 20.8935 23.8364 20.6414 22.9806 20.1419Z" fill="black"/>
<path d="M27.9302 12.7062C28.34 12.7062 28.6724 12.3739 28.6724 11.9641C28.6724 11.5162 29.0367 11.1519 29.4846 11.1519C29.9323 11.1519 30.2966 11.5162 30.2966 11.9641C30.2966 12.3739 30.629 12.7062 31.0388 12.7062C31.4487 12.7062 31.781 12.3739 31.781 11.9641C31.781 10.6977 30.7508 9.6675 29.4846 9.6675C28.2182 9.6675 27.188 10.6977 27.188 11.9641C27.188 12.374 27.5204 12.7062 27.9302 12.7062ZM21.1784 12.7062C21.5883 12.7062 21.9206 12.3739 21.9206 11.9641C21.9206 11.5162 22.285 11.1519 22.7327 11.1519C23.1806 11.1519 23.5449 11.5162 23.5449 11.9641C23.5449 12.3739 23.8773 12.7062 24.2871 12.7062C24.6969 12.7062 25.0293 12.3739 25.0293 11.9641C25.0293 10.6977 23.999 9.6675 22.7327 9.6675C21.4664 9.6675 20.4362 10.6977 20.4362 11.9641C20.4362 12.374 20.7685 12.7062 21.1784 12.7062ZM15.1509 14.6709H5.10889C4.69898 14.6709 4.3667 15.0032 4.3667 15.4131C4.3667 15.8229 4.69898 16.1553 5.10889 16.1553H15.1509C15.5608 16.1553 15.8931 15.8229 15.8931 15.4131C15.8931 15.0032 15.5608 14.6709 15.1509 14.6709ZM15.1509 17.6396H5.10889C4.69898 17.6396 4.3667 17.972 4.3667 18.3818C4.3667 18.7917 4.69898 19.124 5.10889 19.124H15.1509C15.5608 19.124 15.8931 18.7917 15.8931 18.3818C15.8931 17.972 15.5608 17.6396 15.1509 17.6396ZM15.1509 20.6084H5.10889C4.69898 20.6084 4.3667 20.9407 4.3667 21.3506C4.3667 21.7604 4.69898 22.0928 5.10889 22.0928H15.1509C15.5608 22.0928 15.8931 21.7604 15.8931 21.3506C15.8931 20.9407 15.5608 20.6084 15.1509 20.6084ZM6.42731 11.9291C6.83722 11.9291 7.1695 11.5967 7.1695 11.1869V4.42773C7.1695 4.0179 6.83722 3.68555 6.42731 3.68555C6.0174 3.68555 5.68512 4.0179 5.68512 4.42773V11.1869C5.68512 11.5967 6.0174 11.9291 6.42731 11.9291ZM9.38775 11.0855C9.38693 11.4924 9.727 11.8291 10.1328 11.8291C10.1894 11.8289 11.5262 11.8384 12.0549 11.8291C13.9808 11.7956 15.3787 10.0956 15.3787 7.80721C15.3787 5.40163 14.016 3.78544 11.9877 3.78544H10.13C10.0324 3.78548 9.93583 3.80475 9.84571 3.84216C9.75558 3.87956 9.67372 3.93435 9.60479 4.00341C9.53586 4.07247 9.48122 4.15444 9.44399 4.24463C9.40676 4.33482 9.38767 4.43147 9.38782 4.52904V4.53453C9.38782 4.53453 9.38775 11.0504 9.38775 11.0855ZM11.9876 5.26982C13.3934 5.26982 13.8942 6.5806 13.8942 7.80721C13.8942 9.52768 12.9574 10.3248 12.029 10.341C11.7665 10.3456 10.8735 10.341 10.8735 10.341C10.8749 9.56441 10.8768 8.38278 10.8768 7.80009C10.8768 7.31343 10.8748 6.07628 10.8734 5.26982H11.9876Z" fill="black"/>
</svg>
