<svg width="24" height="24" viewBox="0 0 24 24" fill="none" xmlns="http://www.w3.org/2000/svg">
<path d="M5.41906 23.9484H8.27713L3.76747 21.0581L0.0605469 18.8921C0.222453 21.7075 2.56381 23.9484 5.41906 23.9484Z" fill="#FDE494"/>
<path d="M15.7416 22.2969L12.5139 21.4711H5.41902C3.82532 21.4711 2.52871 20.1745 2.52871 18.5808V16.9963L1.28999 15.667L0.0512695 15.886V18.5808C0.0512695 18.6854 0.0546445 18.7891 0.0605039 18.8922L8.27708 23.9486H18.042L15.7416 22.2969Z" fill="#FEA150"/>
<path d="M20.7096 20.5872C20.1837 21.1315 19.447 21.4709 18.6322 21.4709H12.5142L18.0423 23.9484H18.6322C20.5594 23.9484 22.2523 22.9273 23.1992 21.3979L21.9353 20.6451L20.7096 20.5872Z" fill="#FF5D4A"/>
<path d="M21.5224 15.2491V18.5807C21.5224 19.3595 21.2121 20.0669 20.7095 20.5872L23.1991 21.398C23.7065 20.5785 23.9998 19.6133 23.9998 18.5807V15.643L22.7184 14.9231L21.5224 15.2491Z" fill="#E45261"/>
<path d="M24.0004 6.97817L22.6812 6.66406L21.5229 7.35753V15.249L24.0004 15.6429V6.97817Z" fill="#FF4D95"/>
<path d="M24.0002 5.36786C24.0002 2.67213 22.0026 0.434453 19.41 0.0566406L16.1623 1.40809L14.5166 2.47755H18.6325C20.2262 2.47755 21.5228 3.77416 21.5228 5.36786V7.3577L24.0002 6.97834V5.36786Z" fill="#CB319C"/>
<path d="M14.9133 0L11.8411 1.15233L9.41797 2.47744H14.5165L19.4098 0.0565313C19.1523 0.0189269 18.8924 3.36668e-05 18.6322 0L14.9133 0Z" fill="#8A3293"/>
<path d="M12.0256 18.9935C12.8843 18.9935 13.7073 18.8382 14.4685 18.5548L10.445 16.7284L6.18018 15.8557C7.43924 17.7456 9.58925 18.9935 12.0256 18.9935Z" fill="#FF5D4A"/>
<path d="M15.4472 14.283C14.7043 15.3805 13.4477 16.1033 12.0255 16.1033C10.1418 16.1033 8.5498 14.8349 8.05593 13.1076L6.94822 12.4153L5.0376 12.6276C5.14427 13.7819 5.53691 14.8914 6.18003 15.8558L14.4683 18.5549C16.2599 17.8877 17.7068 16.5082 18.4656 14.763L16.9803 14.0107L15.4472 14.283Z" fill="#E45261"/>
<path d="M7.89666 11.9741C7.89666 10.9508 8.27166 10.0139 8.89046 9.29179L7.12904 9.04537L5.33991 9.83545C5.11839 10.5267 5.00585 11.2482 5.00635 11.9741C5.00635 12.1945 5.01774 12.4121 5.03771 12.6273L8.05604 13.1073C7.95039 12.7389 7.89674 12.3574 7.89666 11.9741ZM19.045 11.9741C19.045 10.4709 18.5698 9.07664 17.7621 7.93331L16.0129 7.68506L14.2159 8.47636C15.3793 9.20751 16.1547 10.5016 16.1547 11.9742C16.1557 12.7972 15.9093 13.6016 15.4474 14.2829L18.4658 14.7629C18.8376 13.9075 19.045 12.9648 19.045 11.9741Z" fill="#FF4D95"/>
<path d="M12.0256 7.84505C12.8299 7.84505 13.5805 8.07699 14.2159 8.47627L17.762 7.93327C16.49 6.1328 14.3929 4.95474 12.0256 4.95474C8.90061 4.95474 6.2465 7.00758 5.33984 9.83541L8.89039 9.29171C9.64822 8.40717 10.7722 7.84505 12.0256 7.84505ZM18.632 7.01925C19.5427 7.01925 20.2836 6.27835 20.2836 5.36766C20.2836 4.45697 19.5427 3.71606 18.632 3.71606C17.7214 3.71606 16.9805 4.45697 16.9805 5.36766C16.9805 6.27835 17.7214 7.01925 18.632 7.01925Z" fill="#CB319C"/>
<path d="M2.52871 14.6666L1.33616 14.0718L0.0512695 13.8599V15.8858L2.52871 16.9961V14.6666Z" fill="#FF5D4A"/>
<path d="M0.0512695 11.8347V13.8601L2.52871 14.6668V12.2286L1.24147 11.7659L0.0512695 11.8347Z" fill="#E45261"/>
<path d="M2.52871 10.2661L1.25568 10.2546L0.0512695 10.6455V11.8347L2.52871 12.2286V10.2661Z" fill="#FF4D95"/>
<path d="M2.52871 8.40796L1.21649 8.54104L0.0512695 9.63365V10.6453L2.52871 10.2659V8.40796Z" fill="#CB319C"/>
<path d="M0.0512695 9.63362L2.52871 8.40793V5.58301L1.07563 5.72195L0.0512695 6.6999V9.63362Z" fill="#8A3293"/>
<path d="M9.64274 0L3.98994 2.17411L0.116145 4.53375C0.0729447 4.80965 0.0512543 5.08849 0.0512695 5.36775V6.69998L2.52871 5.58314V5.36775C2.52871 3.77405 3.82532 2.47744 5.41902 2.47744H9.41764L14.9129 0H9.64274Z" fill="#523494"/>
<path d="M5.41957 0C2.74343 0 0.518559 1.96861 0.116699 4.53375L9.64329 0H5.41957Z" fill="#2D2D87"/>
<path d="M12.0255 4.69678C8.0127 4.69678 4.74805 7.96139 4.74805 11.9742C4.74805 13.2536 5.08475 14.5119 5.72187 15.6132C5.77331 15.7021 5.85792 15.7668 5.9571 15.7933C6.05628 15.8198 6.16193 15.8059 6.25081 15.7545C6.33968 15.7031 6.40448 15.6185 6.43098 15.5193C6.45747 15.4201 6.44348 15.3144 6.39209 15.2256C5.82308 14.2419 5.52228 13.1176 5.52228 11.9742C5.52228 8.38832 8.43959 5.47101 12.0255 5.47101C15.6114 5.47101 18.5287 8.38832 18.5287 11.9742C18.5287 15.5601 15.6114 18.4774 12.0255 18.4774C10.2212 18.4774 8.54403 17.7557 7.30292 16.4452C7.23232 16.3706 7.135 16.3272 7.03237 16.3244C6.92973 16.3216 6.8302 16.3597 6.75566 16.4303C6.68111 16.5009 6.63767 16.5982 6.63488 16.7008C6.6321 16.8035 6.6702 16.903 6.7408 16.9776C8.12966 18.444 10.0064 19.2516 12.0255 19.2516C16.0383 19.2516 19.3029 15.987 19.3029 11.9742C19.3029 7.96134 16.0383 4.69678 12.0255 4.69678Z" fill="black"/>
<path d="M12.0259 16.671C14.6157 16.671 16.7227 14.5641 16.7227 11.9742C16.7227 9.38438 14.6157 7.27749 12.0259 7.27749C9.43609 7.27749 7.3291 9.38443 7.3291 11.9742C7.3291 14.564 9.43604 16.671 12.0259 16.671ZM12.0259 8.05168C14.1888 8.05168 15.9485 9.81132 15.9485 11.9743C15.9485 14.1372 14.1888 15.8969 12.0259 15.8969C9.86293 15.8969 8.10329 14.1372 8.10329 11.9743C8.10329 9.81132 9.86293 8.05168 12.0259 8.05168ZM18.6323 3.66455C17.6932 3.66455 16.9291 4.42861 16.9291 5.36775C16.9291 6.30689 17.6932 7.07096 18.6323 7.07096C19.5714 7.07096 20.3355 6.30689 20.3355 5.36775C20.3355 4.42861 19.5714 3.66455 18.6323 3.66455ZM18.6323 6.29682C18.1201 6.29682 17.7033 5.88005 17.7033 5.3678C17.7033 4.85555 18.1201 4.43879 18.6323 4.43879C19.1446 4.43879 19.5613 4.85555 19.5613 5.3678C19.5613 5.88005 19.1446 6.29682 18.6323 6.29682Z" fill="black"/>
<path d="M24 5.34192C24 2.3917 21.6083 0 18.6581 0H5.34192C2.3917 0 0 2.3917 0 5.34192V18.658C0 21.6083 2.3917 24 5.34192 24H18.658C21.6083 24 24 21.6083 24 18.6581V5.34192ZM23.2258 18.6581C23.2258 21.1807 21.1807 23.2258 18.6581 23.2258H5.34192C2.81925 23.2258 0.774188 21.1807 0.774188 18.6581V5.34192C0.774188 2.81925 2.81925 0.774188 5.34192 0.774188H18.658C21.1807 0.774188 23.2258 2.81925 23.2258 5.34192V18.6581H23.2258Z" fill="black"/>
<path d="M22.1937 5.49697C22.1937 3.45889 20.5415 1.80664 18.5034 1.80664H5.49697C3.45889 1.80664 1.80664 3.45889 1.80664 5.49697V18.5034C1.80664 20.5415 3.45889 22.1938 5.49697 22.1938H18.5034C20.5415 22.1938 22.1938 20.5415 22.1938 18.5034V5.49697H22.1937ZM21.4195 18.5034C21.4195 20.114 20.1139 21.4196 18.5034 21.4196H5.49697C3.88644 21.4196 2.58083 20.114 2.58083 18.5034V5.49697C2.58083 3.88644 3.88644 2.58083 5.49697 2.58083H18.5034C20.114 2.58083 21.4196 3.88644 21.4196 5.49697L21.4195 18.5034Z" fill="black"/>
</svg>
