<svg width="36" height="36" viewBox="0 0 36 36" fill="none" xmlns="http://www.w3.org/2000/svg">
<circle cx="18" cy="18" r="18" fill="#FF6767" fill-opacity="0.47"/>
<path d="M25.6765 22.6986C26.5441 21.2852 27.0023 19.6587 27 18.0002C27.0023 16.3417 26.5441 14.715 25.6765 13.3015L25.6716 13.2936C24.8667 11.9817 23.7388 10.8981 22.3957 10.1464C21.0526 9.39471 19.5391 9 17.9999 9C16.4608 9 14.9473 9.39471 13.6042 10.1464C12.2611 10.8981 11.1332 11.9817 10.3283 13.2936L10.3234 13.3015C9.45798 14.7159 9 16.3419 9 18C9 19.6582 9.45798 21.2842 10.3234 22.6986L10.3285 22.7067C11.1334 24.0185 12.2613 25.102 13.6044 25.8537C14.9475 26.6053 16.461 27 18.0001 27C19.5392 27 21.0527 26.6053 22.3958 25.8536C23.7388 25.1019 24.8667 24.0183 25.6716 22.7064L25.6765 22.6986ZM19.1503 25.4574C18.9788 25.6229 18.7814 25.7592 18.5658 25.861C18.389 25.9451 18.1956 25.9887 17.9998 25.9887C17.804 25.9887 17.6107 25.9451 17.4339 25.861C17.0238 25.6516 16.6728 25.3428 16.4129 24.9627C15.8822 24.1957 15.4889 23.3423 15.2506 22.4405C16.1661 22.3841 17.0825 22.3554 17.9999 22.3543C18.9169 22.3543 19.8335 22.3831 20.7495 22.4405C20.6176 22.9041 20.4528 23.3578 20.2564 23.798C19.9978 24.4171 19.6223 24.9805 19.1503 25.4574ZM10.0287 18.5056H13.6589C13.6825 19.5186 13.7924 20.5276 13.9871 21.5219C12.9948 21.6093 12.005 21.7293 11.0177 21.8819C10.4396 20.8447 10.1016 19.6909 10.0287 18.5056ZM11.0177 14.1184C12.0046 14.2713 12.9947 14.3913 13.9882 14.4784C13.793 15.4725 13.683 16.4815 13.6593 17.4944H10.0287C10.1016 16.3092 10.4396 15.1555 11.0177 14.1184ZM16.8496 10.5427C17.0211 10.3772 17.2185 10.2408 17.4341 10.139C17.6109 10.055 17.8042 10.0114 18 10.0114C18.1958 10.0114 18.3892 10.055 18.566 10.139C18.9761 10.3484 19.3271 10.6573 19.587 11.0374C20.1177 11.8044 20.511 12.6578 20.7493 13.5596C19.8338 13.6159 18.9173 13.6446 17.9999 13.6457C17.083 13.6457 16.1664 13.617 15.2504 13.5596C15.3823 13.0959 15.5471 12.6423 15.7435 12.2021C16.0021 11.583 16.3776 11.0196 16.8496 10.5427ZM25.9712 17.4944H22.341C22.3173 16.4815 22.2075 15.4724 22.0128 14.4782C23.0051 14.3908 23.9949 14.2708 24.9822 14.1182C25.5603 15.1554 25.8983 16.3092 25.9712 17.4944ZM15.0042 21.4432C14.8065 20.4758 14.6948 19.4928 14.6705 18.5056H21.3296C21.3055 19.4928 21.194 20.4759 20.9965 21.4434C19.9987 21.3779 18.9999 21.3445 17.9999 21.3431C17.0008 21.3431 16.0023 21.3765 15.0042 21.4432ZM20.9956 14.5568C21.1934 15.5243 21.3051 16.5073 21.3294 17.4944H14.6705C14.6946 16.5072 14.8061 15.5241 15.0036 14.5566C16.0014 14.6222 17.0002 14.6556 18.0001 14.6569C18.9993 14.6569 19.9978 14.6235 20.9959 14.5566L20.9956 14.5568ZM22.3406 18.5056H25.9712C25.8983 19.6908 25.5603 20.8445 24.9822 21.8817C23.9952 21.7288 23.005 21.6088 22.0117 21.5217C22.2069 20.5275 22.3169 19.5185 22.3406 18.5056ZM24.3758 13.1876C23.5129 13.3121 22.6475 13.4106 21.7796 13.4833C21.6236 12.9025 21.4224 12.3347 21.1779 11.7853C20.9546 11.2797 20.6736 10.8016 20.3406 10.3605C21.95 10.8541 23.3623 11.8436 24.3758 13.1876ZM12.3512 12.3512C13.2744 11.427 14.4103 10.7435 15.6591 10.3605C15.6401 10.3851 15.6207 10.4086 15.6021 10.4335C14.9602 11.3575 14.4926 12.3911 14.2224 13.4833C13.3543 13.4098 12.4883 13.3113 11.6243 13.1876C11.8471 12.8925 12.0899 12.613 12.3512 12.3512ZM11.6243 22.8124C12.4871 22.688 13.3525 22.5894 14.2205 22.5167C14.3765 23.0976 14.5777 23.6653 14.8222 24.2148C15.0455 24.7204 15.3265 25.1985 15.6595 25.6396C14.0501 25.146 12.6378 24.1565 11.6243 22.8124ZM23.6491 23.6489C22.7259 24.573 21.59 25.2566 20.3412 25.6396C20.3602 25.6149 20.3796 25.5915 20.3982 25.5666C21.0401 24.6425 21.5077 23.6089 21.7779 22.5167C22.646 22.5902 23.512 22.6888 24.376 22.8124C24.1532 23.1076 23.9104 23.3871 23.6491 23.6489Z" fill="black"/>
</svg>
