<svg width="15" height="21" viewBox="0 0 15 21" fill="none" xmlns="http://www.w3.org/2000/svg">
<path d="M7.38432 0.44873C11.2154 0.44873 14.3199 3.55455 14.3199 7.38432C14.3199 10.2568 9.16657 17.2803 7.38432 20.4929C5.67566 17.4096 0.44873 10.088 0.44873 7.38432C0.44873 3.55455 3.55455 0.44873 7.38432 0.44873ZM10.4843 7.1231C10.4843 5.41625 9.09207 4.02401 7.38432 4.02401C5.67791 4.02401 4.28568 5.41625 4.28568 7.1231C4.28568 8.82951 5.67791 10.2217 7.38432 10.2217C9.09207 10.2217 10.4843 8.82951 10.4843 7.1231Z" fill="#FACB01"/>
<path d="M7.3844 20.9418H7.38431C7.30421 20.9418 7.22557 20.9204 7.15655 20.8797C7.08754 20.839 7.03066 20.7806 6.99182 20.7106C6.53861 19.8927 5.84146 18.7836 5.03421 17.4994C2.79133 13.9314 0 9.4908 0 7.3844C0 3.31264 3.31264 0 7.3844 0C11.4562 0 14.7688 3.31264 14.7688 7.3844C14.7688 9.60058 12.1351 13.744 9.81134 17.3996C9.0128 18.6559 8.25856 19.8425 7.77685 20.7108C7.738 20.7808 7.68112 20.8391 7.61212 20.8798C7.54311 20.9204 7.46449 20.9418 7.3844 20.9418ZM7.3844 0.897636C3.80759 0.897636 0.897636 3.80759 0.897636 7.3844C0.897636 9.2321 3.7277 13.7343 5.79415 17.0217C6.40463 17.9929 6.95269 18.8648 7.38485 19.5941C7.84933 18.813 8.43854 17.886 9.05383 16.9181C11.0868 13.7197 13.8712 9.33945 13.8712 7.3844C13.8712 3.80759 10.9612 0.897636 7.3844 0.897636Z" fill="#070C3E"/>
<path d="M7.38462 10.6706C5.42853 10.6706 3.83716 9.07919 3.83716 7.1231C3.83716 5.16679 5.42853 3.5752 7.38462 3.5752C9.34142 3.5752 10.9334 5.16679 10.9334 7.1231C10.9334 9.07919 9.34142 10.6706 7.38462 10.6706ZM7.38462 4.47283C5.92349 4.47283 4.73479 5.66175 4.73479 7.1231C4.73479 8.58423 5.92349 9.77292 7.38462 9.77292C8.84646 9.77292 10.0358 8.58423 10.0358 7.1231C10.0358 5.66175 8.84646 4.47283 7.38462 4.47283Z" fill="#070C3E"/>
</svg>
