<svg width="36" height="36" viewBox="0 0 36 36" fill="none" xmlns="http://www.w3.org/2000/svg">
<circle cx="18" cy="18" r="18" fill="#67FFBF" fill-opacity="0.47"/>
<path d="M18.5 9C14.3644 9 11 11.9828 11 15.6493C11 16.8563 11.6106 18.1545 11.6362 18.2093C11.8334 18.6243 12.2225 19.2688 12.5031 19.6467L17.6454 26.5545C17.8559 26.8377 18.1674 27 18.5 27C18.8326 27 19.1441 26.8377 19.3546 26.5549L24.4974 19.6467C24.7784 19.2688 25.1671 18.6243 25.3643 18.2093C25.3899 18.1549 26 16.8567 26 15.6493C26 11.9828 22.6356 9 18.5 9ZM24.5507 17.9057C24.3747 18.2777 24.0125 18.8773 23.7606 19.216L18.6178 26.1243C18.5163 26.2608 18.4841 26.2608 18.3826 26.1243L13.2399 19.216C12.9879 18.8773 12.6257 18.2773 12.4497 17.9053C12.4422 17.8893 11.8824 16.6944 11.8824 15.6493C11.8824 12.4142 14.851 9.78227 18.5 9.78227C22.149 9.78227 25.1176 12.4142 25.1176 15.6493C25.1176 16.696 24.5565 17.894 24.5507 17.9057Z" fill="black"/>
<path d="M18.4999 12.1294C16.3103 12.1294 14.5293 13.7088 14.5293 15.6496C14.5293 17.5904 16.3103 19.1698 18.4999 19.1698C20.6894 19.1698 22.4705 17.5904 22.4705 15.6496C22.4705 13.7088 20.6894 12.1294 18.4999 12.1294ZM18.4999 18.3875C16.7974 18.3875 15.4116 17.1594 15.4116 15.6496C15.4116 14.1398 16.7974 12.9117 18.4999 12.9117C20.2024 12.9117 21.5881 14.1398 21.5881 15.6496C21.5881 17.1594 20.2024 18.3875 18.4999 18.3875Z" fill="black"/>
</svg>
