<svg width="36" height="36" viewBox="0 0 36 36" fill="none" xmlns="http://www.w3.org/2000/svg">
<circle cx="18" cy="18" r="18" fill="#AA67FF" fill-opacity="0.47"/>
<path d="M26.4727 13.2891H23.7803L23.7656 12.1605C23.7637 10.4175 22.3451 9 20.6016 9C18.8569 9 17.4375 10.4194 17.4375 12.1641L17.4375 12.1709L17.4521 13.2891H14.7656C14.4744 13.2891 14.2383 13.5252 14.2383 13.8164V17.5078H9.52734C9.23611 17.5078 9 17.7439 9 18.0352V25.418C9 26.2903 9.7097 27 10.582 27H25.418C26.2903 27 27 26.2903 27 25.418V13.8164C27 13.5252 26.7639 13.2891 26.4727 13.2891ZM20.6016 10.0547C21.7647 10.0547 22.7109 11.001 22.7109 12.1641L22.711 12.1709L22.7255 13.2891H18.5068L18.4922 12.1609C18.4939 10.9992 19.4395 10.0547 20.6016 10.0547ZM20.6719 25.418C20.6719 25.7087 20.4353 25.9453 20.1445 25.9453H10.582C10.2913 25.9453 10.0547 25.7087 10.0547 25.418V18.5625H20.6719V25.418ZM25.9453 25.418C25.9453 25.7087 25.7087 25.9453 25.418 25.9453H21.6359C21.696 25.776 21.7266 25.5976 21.7266 25.418V18.0352C21.7266 17.7439 21.4905 17.5078 21.1992 17.5078H15.293V14.3438H17.4658L17.4727 14.8779C17.4764 15.1668 17.7118 15.3984 17.9999 15.3984L18.0069 15.3984C18.2981 15.3946 18.5311 15.1555 18.5273 14.8642L18.5205 14.3438H22.7392L22.7461 14.8779C22.7499 15.1668 22.9852 15.3984 23.2733 15.3984L23.2803 15.3984C23.5715 15.3946 23.8045 15.1555 23.8007 14.8642L23.794 14.3438H25.9453V25.418Z" fill="black"/>
<path d="M18 19.6172C17.7088 19.6172 17.4727 19.8533 17.4727 20.1445V20.6719C17.4727 21.835 16.5264 22.7812 15.3633 22.7812C14.2002 22.7812 13.2539 21.835 13.2539 20.6719V20.1445C13.2539 19.8533 13.0178 19.6172 12.7266 19.6172C12.4353 19.6172 12.1992 19.8533 12.1992 20.1445V20.6719C12.1992 22.4165 13.6186 23.8359 15.3633 23.8359C17.1079 23.8359 18.5273 22.4165 18.5273 20.6719V20.1445C18.5273 19.8533 18.2912 19.6172 18 19.6172Z" fill="black"/>
</svg>
