<svg width="36" height="36" viewBox="0 0 36 36" fill="none" xmlns="http://www.w3.org/2000/svg">
<circle cx="18" cy="18" r="18" fill="#67C8FF" fill-opacity="0.47"/>
<path d="M17.3866 16.1757C18.5764 16.1757 19.6065 15.7549 20.4485 14.9247C21.2901 14.0947 21.717 13.0791 21.717 11.9059C21.717 10.733 21.2903 9.7173 20.4483 8.88699C19.6064 8.0571 18.5762 7.63635 17.3866 7.63635C16.1966 7.63635 15.1666 8.0571 14.3248 8.88713C13.483 9.71716 13.0561 10.7329 13.0561 11.9059C13.0561 13.0791 13.483 14.0949 14.3248 14.9249C15.1669 15.7548 16.197 16.1757 17.3865 16.1757H17.3866ZM15.0699 9.62167C15.7158 8.98477 16.4736 8.6752 17.3866 8.6752C18.2994 8.6752 19.0573 8.98477 19.7033 9.62167C20.3493 10.2587 20.6634 11.0059 20.6634 11.9059C20.6634 12.8061 20.3493 13.5532 19.7033 14.1902C19.0573 14.8273 18.2994 15.1368 17.3866 15.1368C16.4738 15.1368 15.7161 14.8271 15.0699 14.1902C14.4238 13.5533 14.1097 12.8061 14.1097 11.9059C14.1097 11.0059 14.4238 10.2587 15.0699 9.62167ZM24.9637 21.2678C24.9394 20.9224 24.8903 20.5455 24.818 20.1477C24.745 19.7467 24.6511 19.3678 24.5386 19.0214C24.4222 18.6634 24.2644 18.3099 24.0689 17.9711C23.8663 17.6194 23.6282 17.3132 23.361 17.0613C23.0815 16.7977 22.7395 16.5858 22.3438 16.4311C21.9496 16.2774 21.5127 16.1995 21.0454 16.1995C20.8619 16.1995 20.6844 16.2737 20.3416 16.4938C20.0979 16.6502 19.8535 16.8056 19.6084 16.9598C19.3729 17.1078 19.0539 17.2464 18.6598 17.3719C18.2753 17.4946 17.8849 17.5568 17.4994 17.5568C17.1143 17.5568 16.7239 17.4946 16.3391 17.3719C15.9455 17.2465 15.6263 17.1079 15.3911 16.96C15.1183 16.7881 14.8714 16.6312 14.6573 16.4936C14.3148 16.2736 14.1373 16.1993 13.9538 16.1993C13.4863 16.1993 13.0496 16.2774 12.6555 16.4313C12.2601 16.5856 11.9179 16.7975 11.6382 17.0614C11.371 17.3135 11.1329 17.6195 10.9304 17.9711C10.7352 18.3099 10.5772 18.6633 10.4609 19.0216C10.3485 19.3679 10.2546 19.7467 10.1816 20.1477C10.1092 20.545 10.0602 20.9219 10.0359 21.2682C10.012 21.6067 10 21.959 10 22.315C10 23.2404 10.2983 23.9895 10.8867 24.542C11.4677 25.0872 12.2364 25.3636 13.1715 25.3636H21.8285C22.7633 25.3636 23.532 25.0872 24.1132 24.542C24.7017 23.9899 25 23.2405 25 22.3148C24.9999 21.9577 24.9877 21.6053 24.9637 21.2678ZM23.3868 23.7893C23.0028 24.1496 22.4931 24.3248 21.8283 24.3248H13.1715C12.5067 24.3248 11.9969 24.1496 11.6131 23.7895C11.2366 23.4361 11.0536 22.9537 11.0536 22.315C11.0536 21.9828 11.0647 21.6549 11.087 21.34C11.1086 21.0311 11.1529 20.6917 11.2187 20.3312C11.2835 19.9751 11.3661 19.6409 11.4643 19.3383C11.5586 19.0482 11.6871 18.7609 11.8465 18.4842C11.9986 18.2205 12.1736 17.9942 12.3667 17.8119C12.5474 17.6414 12.7751 17.5018 13.0434 17.3971C13.2915 17.3002 13.5704 17.2472 13.8731 17.2392C13.91 17.2586 13.9758 17.2955 14.0822 17.364C14.2988 17.5031 14.5484 17.6619 14.8244 17.8357C15.1355 18.0313 15.5363 18.2079 16.0152 18.3603C16.5047 18.5164 17.004 18.5956 17.4996 18.5956C17.9952 18.5956 18.4946 18.5164 18.9839 18.3605C19.4632 18.2078 19.8639 18.0313 20.1754 17.8354C20.4578 17.6575 20.7005 17.5033 20.917 17.364C21.0235 17.2956 21.0892 17.2586 21.1261 17.2393C21.429 17.2472 21.7078 17.3002 21.9561 17.3971C22.2243 17.5018 22.452 17.6415 22.6326 17.8119C22.8258 17.9941 23.0008 18.2204 23.1529 18.4844C23.3124 18.7609 23.4411 19.0484 23.5352 19.3382C23.6336 19.6411 23.7163 19.9752 23.781 20.331C23.8466 20.6923 23.891 21.0318 23.9127 21.3401V21.3404C23.9351 21.654 23.9463 21.9819 23.9464 22.315C23.9463 22.9538 23.7633 23.4361 23.3868 23.7893H23.3868Z" fill="black"/>
</svg>
