<svg width="55" height="55" viewBox="0 0 55 55" fill="none" xmlns="http://www.w3.org/2000/svg">
<circle cx="27.2936" cy="27.2935" r="27.2936" fill="url(#paint0_linear_4306_547)"/>
<g filter="url(#filter0_d_4306_547)">
<path d="M40.4169 27.5669L13.5991 27.5496C13.4467 27.5496 13.3005 27.4891 13.1927 27.3813C13.085 27.2736 13.0244 27.1274 13.0244 26.975C13.0244 26.8226 13.085 26.6764 13.1927 26.5686C13.3005 26.4608 13.4467 26.4003 13.5991 26.4003L40.4169 26.4175C40.5693 26.4175 40.7155 26.4781 40.8232 26.5859C40.931 26.6936 40.9916 26.8398 40.9916 26.9922C40.9916 27.1446 40.931 27.2908 40.8232 27.3986C40.7155 27.5063 40.5693 27.5669 40.4169 27.5669ZM30.6974 25.2418C33.751 25.2437 36.2276 22.7687 36.2276 19.715C36.2258 19.2093 36.0241 18.7248 35.6665 18.3672C35.3089 18.0096 34.8244 17.8079 34.3187 17.8062H19.7471C19.2413 17.8079 18.7569 18.0096 18.3993 18.3672C18.0417 18.7248 17.84 19.2093 17.8382 19.715C17.8382 22.7635 20.3085 25.2353 23.3569 25.2372L30.6974 25.2418Z" fill="white"/>
<path d="M25.7413 26.388C21.3771 26.3853 17.8377 29.9224 17.8377 34.2866C17.8395 34.7924 18.0412 35.2768 18.3988 35.6344C18.7564 35.992 19.2409 36.1937 19.7466 36.1955H34.3182C34.824 36.1937 35.3085 35.992 35.6661 35.6344C36.0237 35.2768 36.2253 34.7924 36.2271 34.2866C36.2271 29.9272 32.6945 26.3923 28.335 26.3896L25.7413 26.388ZM40.4413 21.5415C40.2889 21.5415 40.1427 21.4809 40.035 21.3732C39.9272 21.2654 39.8667 21.1192 39.8667 20.9668V15.268C39.8664 14.9714 39.7485 14.687 39.5387 14.4773C39.329 14.2675 39.0446 14.1496 38.748 14.1493H33.053C32.9006 14.1493 32.7544 14.0888 32.6467 13.981C32.5389 13.8732 32.4784 13.7271 32.4784 13.5747C32.4784 13.4223 32.5389 13.2761 32.6467 13.1683C32.7544 13.0605 32.9006 13 33.053 13H38.748C39.3493 13.0005 39.9259 13.2396 40.3511 13.6648C40.7764 14.0901 41.0155 14.6667 41.016 15.268V20.9668C41.016 21.1192 40.9554 21.2654 40.8477 21.3732C40.7399 21.4809 40.5937 21.5415 40.4413 21.5415ZM13.5747 21.5415C13.4223 21.5415 13.2761 21.4809 13.1683 21.3732C13.0605 21.2654 13 21.1192 13 20.9668V15.268C13.0003 14.6666 13.2393 14.0898 13.6646 13.6646C14.0898 13.2393 14.6666 13.0003 15.268 13H20.963C21.1154 13 21.2616 13.0605 21.3693 13.1683C21.4771 13.2761 21.5376 13.4223 21.5376 13.5747C21.5376 13.7271 21.4771 13.8732 21.3693 13.981C21.2616 14.0888 21.1154 14.1493 20.963 14.1493H15.268C14.9714 14.1496 14.687 14.2675 14.4773 14.4773C14.2675 14.687 14.1496 14.9714 14.1493 15.268V20.9668C14.1493 21.1192 14.0888 21.2654 13.981 21.3732C13.8732 21.4809 13.7271 21.5415 13.5747 21.5415ZM38.748 40.9595H33.053C32.9006 40.9595 32.7544 40.8989 32.6467 40.7912C32.5389 40.6834 32.4784 40.5372 32.4784 40.3848C32.4784 40.2324 32.5389 40.0862 32.6467 39.9785C32.7544 39.8707 32.9006 39.8101 33.053 39.8101H38.748C39.0444 39.8099 39.3287 39.6921 39.5384 39.4825C39.7481 39.273 39.8661 38.9889 39.8667 38.6924V32.9975C39.8667 32.8451 39.9272 32.6989 40.035 32.5911C40.1427 32.4833 40.2889 32.4228 40.4413 32.4228C40.5937 32.4228 40.7399 32.4833 40.8477 32.5911C40.9554 32.6989 41.016 32.8451 41.016 32.9975V38.6924C41.0155 39.2937 40.7763 39.8702 40.3511 40.2953C39.9258 40.7203 39.3492 40.9592 38.748 40.9595ZM20.963 40.96C20.963 40.9597 20.9628 40.9595 20.9625 40.9595H15.268C14.6669 40.959 14.0906 40.72 13.6655 40.2949C13.2405 39.8699 13.0015 39.2935 13.001 38.6924V32.9975C13.001 32.922 13.0158 32.8473 13.0447 32.7775C13.0736 32.7078 13.1159 32.6445 13.1693 32.5911C13.2226 32.5378 13.286 32.4954 13.3557 32.4665C13.4254 32.4377 13.5002 32.4228 13.5756 32.4228C13.6511 32.4228 13.7258 32.4377 13.7955 32.4665C13.8653 32.4954 13.9286 32.5378 13.982 32.5911C14.0353 32.6445 14.0777 32.7078 14.1065 32.7775C14.1354 32.8473 14.1503 32.922 14.1503 32.9975V38.6924C14.1505 38.989 14.2685 39.2734 14.4782 39.4832C14.688 39.6929 14.9724 39.8109 15.269 39.8111H20.963C21.1154 39.8111 21.2616 39.8716 21.3693 39.9794C21.4771 40.0872 21.5376 40.2334 21.5376 40.3858C21.5376 40.5382 21.4771 40.6844 21.3693 40.7921C21.2617 40.8998 21.1157 40.9603 20.9635 40.9604C20.9632 40.9604 20.963 40.9602 20.963 40.96Z" fill="white"/>
</g>
<defs>
<filter id="filter0_d_4306_547" x="9" y="13" width="36.0156" height="35.9604" filterUnits="userSpaceOnUse" color-interpolation-filters="sRGB">
<feFlood flood-opacity="0" result="BackgroundImageFix"/>
<feColorMatrix in="SourceAlpha" type="matrix" values="0 0 0 0 0 0 0 0 0 0 0 0 0 0 0 0 0 0 127 0" result="hardAlpha"/>
<feOffset dy="4"/>
<feGaussianBlur stdDeviation="2"/>
<feComposite in2="hardAlpha" operator="out"/>
<feColorMatrix type="matrix" values="0 0 0 0 0 0 0 0 0 0 0 0 0 0 0 0 0 0 0.25 0"/>
<feBlend mode="normal" in2="BackgroundImageFix" result="effect1_dropShadow_4306_547"/>
<feBlend mode="normal" in="SourceGraphic" in2="effect1_dropShadow_4306_547" result="shape"/>
</filter>
<linearGradient id="paint0_linear_4306_547" x1="41.4862" y1="-6.55058" x2="15.2844" y2="54.587" gradientUnits="userSpaceOnUse">
<stop stop-color="#637782"/>
<stop offset="1" stop-color="#81B2CA"/>
</linearGradient>
</defs>
</svg>
