<svg width="23" height="27" viewBox="0 0 23 27" fill="none" xmlns="http://www.w3.org/2000/svg">
<path d="M16.2196 9.18081C15.3117 9.18081 14.4242 8.91159 13.6693 8.40719C12.9144 7.90279 12.326 7.18587 11.9786 6.34708C11.6311 5.50829 11.5402 4.58532 11.7174 3.69486C11.8945 2.80441 12.3317 1.98648 12.9737 1.3445C13.6156 0.702521 14.4336 0.265327 15.324 0.0882054C16.2145 -0.0889164 17.1374 0.00198896 17.9762 0.349426C18.815 0.696863 19.5319 1.28523 20.0363 2.04011C20.5407 2.795 20.81 3.68251 20.81 4.59041C20.8083 5.80736 20.3242 6.97401 19.4637 7.83453C18.6032 8.69504 17.4365 9.17919 16.2196 9.18081ZM16.2196 1.83616C15.6748 1.83616 15.1423 1.9977 14.6894 2.30034C14.2364 2.60298 13.8834 3.03313 13.675 3.5364C13.4665 4.03968 13.412 4.59346 13.5182 5.12773C13.6245 5.662 13.8868 6.15276 14.272 6.53795C14.6572 6.92314 15.148 7.18546 15.6822 7.29173C16.2165 7.398 16.7703 7.34346 17.2736 7.135C17.7768 6.92653 18.207 6.57352 18.5096 6.12058C18.8123 5.66765 18.9738 5.13515 18.9738 4.59041C18.9728 3.86023 18.6823 3.16025 18.166 2.64394C17.6497 2.12763 16.9497 1.83714 16.2196 1.83616Z" fill="#FFC700"/>
<path d="M19.2307 22.3402H3.41526C2.58134 22.341 1.77607 22.0359 1.15204 21.4827C0.528011 20.9295 0.128562 20.1667 0.0293785 19.3387C0.0115234 19.1932 0.00171572 19.0469 0 18.9004C0.00287119 18.4222 0.107256 17.95 0.30625 17.515C0.505244 17.0801 0.794313 16.6924 1.15433 16.3776L1.6146 15.9638C2.20268 15.44 2.5958 14.7323 2.72976 13.9563L3.69681 8.16134C3.96115 6.52834 4.7444 5.0239 5.93055 3.87081C7.1167 2.71773 8.64269 1.97733 10.2825 1.75925C10.5202 1.7341 10.7583 1.8026 10.9462 1.95022C11.1342 2.09783 11.2572 2.31292 11.289 2.54977C11.3209 2.78663 11.2592 3.02658 11.1169 3.21863C10.9747 3.41069 10.7632 3.53971 10.5273 3.57828C9.27684 3.74543 8.1134 4.31079 7.20926 5.19068C6.30512 6.07057 5.70834 7.21821 5.50726 8.4637L4.54144 14.266C4.33548 15.452 3.73454 16.5335 2.83626 17.3348L2.37599 17.7486C2.2094 17.8912 2.07509 18.0677 1.98201 18.2664C1.88893 18.465 1.83921 18.6811 1.83616 18.9004C1.8385 18.9779 1.84504 19.0551 1.85575 19.1318C1.90303 19.5116 2.0878 19.861 2.37515 20.1138C2.6625 20.3666 3.03252 20.5055 3.41526 20.504H19.2307C19.6198 20.5061 19.9956 20.3625 20.2842 20.1016C20.5728 19.8406 20.7533 19.4812 20.7903 19.0939L20.8062 18.969C20.8246 18.7198 20.784 18.4698 20.6876 18.2392C20.5913 18.0086 20.4419 17.8041 20.2516 17.6421L19.9199 17.3679C18.9798 16.5621 18.3506 15.4533 18.1413 14.2329L17.517 10.4565C17.4788 10.2169 17.537 9.97193 17.6789 9.77511C17.8208 9.57829 18.0349 9.44565 18.2743 9.40618C18.5137 9.36671 18.759 9.42362 18.9566 9.56447C19.1541 9.70533 19.2879 9.91867 19.3287 10.1579L19.953 13.9281C20.0874 14.7195 20.4934 15.4394 21.1012 15.9638L21.4439 16.2454C21.863 16.6056 22.1894 17.0613 22.3956 17.5741C22.6018 18.0869 22.6818 18.6417 22.6289 19.1918C22.5621 20.0477 22.1753 20.847 21.5455 21.4305C20.9157 22.014 20.0893 22.3388 19.2307 22.3402Z" fill="#053A5E"/>
<path d="M11.3228 26.3183C10.1059 26.3167 8.93923 25.8325 8.07871 24.972C7.21819 24.1115 6.73404 22.9448 6.73242 21.7279V21.4219C6.73242 21.1784 6.82915 20.9449 7.00132 20.7727C7.1735 20.6005 7.40701 20.5038 7.6505 20.5038C7.89399 20.5038 8.12751 20.6005 8.29968 20.7727C8.47186 20.9449 8.56858 21.1784 8.56858 21.4219V21.7279C8.56858 22.4584 8.85876 23.1589 9.37528 23.6754C9.8918 24.192 10.5924 24.4821 11.3228 24.4821C12.0533 24.4821 12.7539 24.192 13.2704 23.6754C13.7869 23.1589 14.0771 22.4584 14.0771 21.7279V21.4219C14.0771 21.1784 14.1738 20.9449 14.346 20.7727C14.5181 20.6005 14.7517 20.5038 14.9952 20.5038C15.2386 20.5038 15.4722 20.6005 15.6443 20.7727C15.8165 20.9449 15.9132 21.1784 15.9132 21.4219V21.7279C15.9116 22.9448 15.4275 24.1115 14.5669 24.972C13.7064 25.8325 12.5398 26.3167 11.3228 26.3183Z" fill="#053A5E"/>
</svg>
