<svg width="36" height="36" viewBox="0 0 36 36" fill="none" xmlns="http://www.w3.org/2000/svg">
<circle cx="18" cy="18" r="18" fill="#AAFF67" fill-opacity="0.47"/>
<path d="M18.4996 9C15.409 9 12.8945 11.2608 12.8945 14.0398V16.5075C12.8945 16.6755 13.0462 16.8118 13.2331 16.8118H15.1121C15.2019 16.8118 15.288 16.7797 15.3514 16.7226C15.4149 16.6656 15.4506 16.5882 15.4506 16.5075V14.0398C15.4506 12.5281 16.8183 11.2983 18.4995 11.2983C20.1807 11.2983 21.5485 12.5281 21.5485 14.0398V16.5075C21.5485 16.6755 21.7002 16.8118 21.8871 16.8118H23.7661C23.8559 16.8118 23.942 16.7797 24.0055 16.7226C24.0689 16.6656 24.1046 16.5882 24.1046 16.5075V14.0398C24.1046 11.2608 21.5902 9 18.4996 9ZM23.4277 16.2032H22.2255V14.0398C22.2255 12.1925 20.5541 10.6896 18.4996 10.6896C16.4452 10.6896 14.7738 12.1925 14.7738 14.0398V16.2032H13.5715V14.0398C13.5715 11.5964 15.7822 9.60866 18.4996 9.60866C21.217 9.60866 23.4277 11.5964 23.4277 14.0398V16.2032Z" fill="black"/>
<path d="M24.546 16.2031H12.454C11.6523 16.2031 11 16.7896 11 17.5105V25.6926C11 26.4134 11.6523 27 12.454 27H24.546C25.3477 27 26 26.4135 26 25.6925V17.5105C26 16.7896 25.3477 16.2031 24.546 16.2031ZM25.3231 25.6925C25.3231 26.0778 24.9745 26.3913 24.546 26.3913H12.454C12.0255 26.3913 11.6769 26.0778 11.6769 25.6925V17.5105C11.6769 17.1252 12.0255 16.8117 12.454 16.8117H24.546C24.9745 16.8117 25.3231 17.1252 25.3231 17.5105V25.6925Z" fill="black"/>
<path d="M19.6384 22.0001C20.0338 21.7005 20.2639 21.2626 20.2639 20.7919C20.2639 19.9175 19.4726 19.2061 18.5001 19.2061C17.5276 19.2061 16.7363 19.9175 16.7363 20.7919C16.7363 21.2626 16.9664 21.7005 17.3619 22.0001L16.9814 23.63C16.9711 23.6744 16.9719 23.7202 16.9838 23.7642C16.9956 23.8082 17.0182 23.8492 17.05 23.8844C17.0817 23.9195 17.1217 23.9479 17.1672 23.9673C17.2126 23.9868 17.2624 23.9969 17.3127 23.9969H19.6875C19.7379 23.9969 19.7876 23.9868 19.8331 23.9674C19.8785 23.9479 19.9186 23.9196 19.9503 23.8844C19.982 23.8493 20.0046 23.8082 20.0165 23.7642C20.0283 23.7202 20.0291 23.6744 20.0187 23.6301L19.6384 22.0001ZM19.0808 21.6147C19.0228 21.648 18.9773 21.6963 18.9506 21.7534C18.9239 21.8104 18.9172 21.8734 18.9313 21.934L19.2707 23.3882H17.7296L18.069 21.9341C18.0832 21.8735 18.0765 21.8105 18.0497 21.7534C18.023 21.6964 17.9776 21.648 17.9195 21.6148C17.6025 21.4334 17.4133 21.1258 17.4133 20.792C17.4133 20.2531 17.9008 19.8147 18.5001 19.8147C19.0994 19.8147 19.5869 20.2531 19.5869 20.792C19.587 21.1258 19.3978 21.4334 19.0808 21.6147Z" fill="black"/>
</svg>
