<svg width="36" height="36" viewBox="0 0 36 36" fill="none" xmlns="http://www.w3.org/2000/svg">
<circle cx="18" cy="18" r="18" fill="#FFDE67" fill-opacity="0.47"/>
<path d="M13.0288 27C12.8316 27 12.6358 26.9358 12.4686 26.8097C12.3166 26.6949 12.2003 26.5359 12.1342 26.3527C12.068 26.1694 12.055 25.9699 12.0966 25.779L13.2546 20.4562L9.32742 16.8625C9.18618 16.7339 9.08429 16.5648 9.03443 16.3762C8.98457 16.1877 8.98895 15.988 9.04701 15.802C9.10471 15.6161 9.21343 15.452 9.35968 15.33C9.50593 15.208 9.68328 15.1334 9.86975 15.1156L15.0659 14.6233L17.1203 9.6066C17.2717 9.23802 17.6166 9 18 9C18.3833 9 18.7282 9.23802 18.8797 9.60576L20.9341 14.6233L26.1294 15.1155C26.5119 15.1515 26.8344 15.4216 26.9529 15.802C27.0715 16.1823 26.9618 16.5995 26.6732 16.8625L22.746 20.4555L23.904 25.7782C23.9889 26.1695 23.8433 26.5743 23.5321 26.809C23.2216 27.0437 22.8075 27.0617 22.4806 26.8567L18 24.0627L13.5194 26.8582C13.3679 26.9521 13.1991 27 13.0288 27ZM18 22.8591C18.1703 22.8591 18.3389 22.9067 18.4905 23.0006L22.7191 25.6398L21.6262 20.6159C21.588 20.4403 21.5959 20.2572 21.6493 20.0859C21.7026 19.9147 21.7994 19.7617 21.9293 19.6431L25.6374 16.2497L20.7315 15.7848C20.5588 15.7687 20.3936 15.7038 20.2536 15.5973C20.1136 15.4907 20.0039 15.3463 19.9365 15.1797L18 10.4455L16.0611 15.1804C15.9246 15.5178 15.6208 15.7495 15.2684 15.7832L10.3618 16.2481L14.0698 19.6415C14.3354 19.8842 14.4516 20.2568 14.3729 20.6152L13.2808 25.6389L17.5094 23.0006C17.6609 22.9067 17.8297 22.8591 18 22.8591ZM15.0262 14.7203C15.0262 14.7203 15.0262 14.7212 15.0254 14.7219L15.0262 14.7203ZM20.9723 14.718L20.9731 14.7196C20.9731 14.7187 20.9731 14.7187 20.9722 14.718H20.9723Z" fill="black"/>
</svg>
