<svg width="299" height="299" viewBox="0 0 299 299" fill="none" xmlns="http://www.w3.org/2000/svg">
<mask id="path-1-inside-1_2132_727" fill="white">
<path d="M0 5C0 2.23857 2.23858 0 5 0H81.1525C83.914 0 86.1525 2.23858 86.1525 5V81.1525C86.1525 83.914 83.914 86.1525 81.1525 86.1525H5C2.23857 86.1525 0 83.914 0 81.1525V5Z"/>
</mask>
<path d="M-5 5C-5 -0.522847 -0.522847 -5 5 -5H76.1525C81.6754 -5 86.1525 -0.522847 86.1525 5C86.1525 5 83.914 5 81.1525 5H5H-5ZM86.1525 86.1525H0H86.1525ZM5 86.1525C-0.522847 86.1525 -5 81.6754 -5 76.1525V5C-5 -0.522847 -0.522847 -5 5 -5V5V81.1525C5 83.914 5 86.1525 5 86.1525ZM86.1525 0V86.1525V0Z" fill="black" mask="url(#path-1-inside-1_2132_727)"/>
<mask id="path-3-inside-2_2132_727" fill="white">
<path d="M299 5C299 2.23857 296.761 0 294 0H217.847C215.086 0 212.847 2.23858 212.847 5V81.1525C212.847 83.914 215.086 86.1525 217.847 86.1525H294C296.761 86.1525 299 83.914 299 81.1525V5Z"/>
</mask>
<path d="M304 5C304 -0.522847 299.523 -5 294 -5H222.847C217.325 -5 212.847 -0.522847 212.847 5C212.847 5 215.086 5 217.847 5H294H304ZM212.847 86.1525H299H212.847ZM294 86.1525C299.523 86.1525 304 81.6754 304 76.1525V5C304 -0.522847 299.523 -5 294 -5V5V81.1525C294 83.914 294 86.1525 294 86.1525ZM212.847 0V86.1525V0Z" fill="black" mask="url(#path-3-inside-2_2132_727)"/>
<mask id="path-5-inside-3_2132_727" fill="white">
<path d="M0 294C0 296.761 2.23858 299 5 299H81.1525C83.914 299 86.1525 296.761 86.1525 294V217.847C86.1525 215.086 83.914 212.847 81.1525 212.847H5C2.23857 212.847 0 215.086 0 217.847V294Z"/>
</mask>
<path d="M-5 294C-5 299.523 -0.522847 304 5 304H76.1525C81.6754 304 86.1525 299.523 86.1525 294C86.1525 294 83.914 294 81.1525 294H5H-5ZM86.1525 212.847H0H86.1525ZM5 212.847C-0.522847 212.847 -5 217.325 -5 222.847V294C-5 299.523 -0.522847 304 5 304V294V217.847C5 215.086 5 212.847 5 212.847ZM86.1525 299V212.847V299Z" fill="black" mask="url(#path-5-inside-3_2132_727)"/>
<mask id="path-7-inside-4_2132_727" fill="white">
<path d="M299 294C299 296.761 296.761 299 294 299H217.847C215.086 299 212.847 296.761 212.847 294V217.847C212.847 215.086 215.086 212.847 217.847 212.847H294C296.761 212.847 299 215.086 299 217.847V294Z"/>
</mask>
<path d="M304 294C304 299.523 299.523 304 294 304H222.847C217.325 304 212.847 299.523 212.847 294C212.847 294 215.086 294 217.847 294H294H304ZM212.847 212.847H299H212.847ZM294 212.847C299.523 212.847 304 217.325 304 222.847V294C304 299.523 299.523 304 294 304V294V217.847C294 215.086 294 212.847 294 212.847ZM212.847 299V212.847V299Z" fill="black" mask="url(#path-7-inside-4_2132_727)"/>
</svg>
