<svg width="57" height="57" viewBox="0 0 57 57" fill="none" xmlns="http://www.w3.org/2000/svg">
<rect width="57" height="57" rx="28.5" fill="#0C0C0C"/>
<path d="M28.7264 23.7061C27.6467 23.3021 26.5055 23.0317 25.3534 23.0286C24.1751 23.0283 23.0124 23.3103 21.9074 23.7197C18.7203 24.9081 15.9649 27.2176 14.2413 30.1459C12.5177 33.0743 11.8307 36.6067 12.3363 39.9652C12.5319 41.2683 12.9137 42.5646 13.666 43.6462C14.4172 44.7236 15.5865 45.5642 16.893 45.7037C18.898 45.9227 20.6782 44.5556 22.3134 43.3765C22.3175 43.3753 22.3259 43.373 22.3277 43.3635C23.1978 42.737 24.4019 42.8467 25.1586 43.6045C26.3 44.7484 27.9725 46.3051 28.8928 46.6189C30.7196 47.2457 32.8717 47.0746 34.4044 45.897C35.3309 45.1832 35.974 44.1582 36.4727 43.0971C38.124 39.5527 38.2709 35.3323 36.8335 31.699C35.396 28.0658 32.3809 25.076 28.7222 23.7072L28.7264 23.7061Z" fill="white"/>
<path d="M38.0317 17.8601C38.459 14.6998 37.1028 11.9087 35.0082 11.6249C32.9136 11.341 30.8679 13.6733 30.4405 16.8335C30.0131 19.9938 31.3694 22.785 33.464 23.0688C35.5586 23.3526 37.6043 21.0204 38.0317 17.8601Z" fill="white"/>
<path d="M45.2578 22.0298C43.3128 21.2027 40.7223 22.911 39.4742 25.8419C38.2273 28.777 38.7952 31.827 40.7403 32.654C42.6854 33.4811 45.2759 31.7728 46.5239 28.8419C47.7708 25.9068 47.2041 22.8609 45.2578 22.0298Z" fill="white"/>
<path d="M19.0145 15.3383C18.6292 18.5048 20.0165 21.2784 22.1166 21.5338C24.2168 21.7893 26.2336 19.4337 26.6189 16.2671C27.0043 13.1006 25.617 10.327 23.5168 10.0716C21.4167 9.81616 19.3999 12.1718 19.0145 15.3383Z" fill="white"/>
<path d="M14.8329 21.7615C14.366 18.6073 12.2932 16.3015 10.2011 16.6083C8.10895 16.9151 6.7907 19.7221 7.25345 22.8775C7.72036 26.0317 9.79321 28.3375 11.8853 28.0307C13.9774 27.7239 15.2957 24.9169 14.8329 21.7615Z" fill="white"/>
</svg>
