<svg width="24" height="32" viewBox="0 0 24 32" fill="none" xmlns="http://www.w3.org/2000/svg">
<path d="M16.44 13.0687C17.6195 12.1448 18.4813 10.8759 18.9055 9.43899C19.3296 8.00203 19.2949 6.46856 18.8062 5.05225C18.3176 3.63594 17.3992 2.40736 16.1792 1.53772C14.9592 0.668073 13.4982 0.200684 12 0.200684C10.5018 0.200684 9.04083 0.668073 7.82081 1.53772C6.60079 2.40736 5.68245 3.63594 5.19376 5.05225C4.70508 6.46856 4.67039 8.00203 5.09454 9.43899C5.51869 10.8759 6.38055 12.1448 7.56 13.0687C5.33168 13.9574 3.42061 15.4931 2.07315 17.478C0.725689 19.4628 0.00361222 21.8057 0 24.2047V30.2047C0 30.523 0.126428 30.8282 0.351472 31.0532C0.576516 31.2783 0.88174 31.4047 1.2 31.4047H22.8C23.1183 31.4047 23.4235 31.2783 23.6485 31.0532C23.8736 30.8282 24 30.523 24 30.2047V24.2047C23.9964 21.8057 23.2743 19.4628 21.9269 17.478C20.5794 15.4931 18.6683 13.9574 16.44 13.0687ZM15.6 19.4047H14.4V24.2047C14.4074 24.9788 14.1675 25.735 13.7151 26.3632C13.2628 26.9914 12.6218 27.4588 11.8853 27.6973C11.1489 27.9359 10.3555 27.933 9.62078 27.6893C8.88606 27.4455 8.24834 26.9735 7.80052 26.3421C7.3527 25.7107 7.11816 24.9528 7.13107 24.1788C7.14398 23.4048 7.40366 22.6551 7.87228 22.039C8.34091 21.4228 8.99401 20.9724 9.73645 20.7533C10.4789 20.5341 11.2719 20.5578 12 20.8207V18.2047C12 17.8864 12.1264 17.5812 12.3515 17.3562C12.5765 17.1311 12.8817 17.0047 13.2 17.0047H15.6C15.9183 17.0047 16.2235 17.1311 16.4485 17.3562C16.6736 17.5812 16.8 17.8864 16.8 18.2047C16.8 18.523 16.6736 18.8282 16.4485 19.0532C16.2235 19.2783 15.9183 19.4047 15.6 19.4047Z" fill="black"/>
<path d="M10.7996 25.4046C11.4624 25.4046 11.9996 24.8674 11.9996 24.2046C11.9996 23.5419 11.4624 23.0046 10.7996 23.0046C10.1369 23.0046 9.59961 23.5419 9.59961 24.2046C9.59961 24.8674 10.1369 25.4046 10.7996 25.4046Z" fill="black"/>
</svg>
