<svg width="32" height="33" viewBox="0 0 32 33" fill="none" xmlns="http://www.w3.org/2000/svg">
<path d="M6.66675 10.8123H10.6667L6.66675 6.81226V10.8123Z" stroke="#14181F" stroke-width="2" stroke-linecap="round" stroke-linejoin="round"/>
<path d="M7.05396 21.9549C8.29639 23.8681 10.1195 25.3326 12.2555 26.1333C14.3916 26.9341 16.7281 27.029 18.922 26.404C21.1159 25.779 23.0517 24.4672 24.4452 22.661C25.8386 20.8548 26.6163 18.6495 26.6641 16.3688C26.7119 14.0881 26.0272 11.8521 24.7106 9.98921C23.394 8.12628 21.5149 6.7345 19.349 6.01822C17.1832 5.30194 14.8448 5.29888 12.677 6.00949C10.5093 6.7201 8.62654 8.10695 7.30508 9.96643" stroke="#14181F" stroke-width="2" stroke-linecap="round" stroke-linejoin="round"/>
<path d="M16 10.8123V16.1456L21.3333 21.4789" stroke="#14181F" stroke-width="2" stroke-linecap="round" stroke-linejoin="round"/>
</svg>
