<svg width="89" height="37" viewBox="0 0 89 37" fill="none" xmlns="http://www.w3.org/2000/svg">
<g filter="url(#filter0_i_2111_3128)">
<rect width="89" height="37" rx="18.5" fill="#364D6F"/>
<rect width="89" height="37" rx="18.5" fill="url(#paint0_radial_2111_3128)" fill-opacity="0.7"/>
<path d="M22.5686 23L18.4736 11.825H19.7186L23.3186 21.935H23.0786L26.6636 11.825H27.9236L23.8286 23H22.5686ZM29.2488 23V14.96H30.3738V23H29.2488ZM29.2488 13.475V11.825H30.3738V13.475H29.2488ZM36.3365 23.18C35.5865 23.18 34.9065 23 34.2965 22.64C33.6965 22.27 33.2215 21.765 32.8715 21.125C32.5215 20.485 32.3465 19.76 32.3465 18.95C32.3465 18.14 32.5165 17.425 32.8565 16.805C33.1965 16.175 33.6565 15.68 34.2365 15.32C34.8265 14.96 35.4865 14.78 36.2165 14.78C36.7965 14.78 37.3115 14.89 37.7615 15.11C38.2215 15.32 38.6115 15.61 38.9315 15.98C39.2515 16.34 39.4965 16.75 39.6665 17.21C39.8365 17.66 39.9215 18.125 39.9215 18.605C39.9215 18.705 39.9165 18.82 39.9065 18.95C39.8965 19.07 39.8815 19.195 39.8615 19.325H33.0665V18.275H39.2165L38.6765 18.725C38.7665 18.175 38.7015 17.685 38.4815 17.255C38.2715 16.815 37.9665 16.47 37.5665 16.22C37.1665 15.96 36.7165 15.83 36.2165 15.83C35.7165 15.83 35.2515 15.96 34.8215 16.22C34.4015 16.48 34.0715 16.845 33.8315 17.315C33.5915 17.775 33.4965 18.325 33.5465 18.965C33.4965 19.605 33.5965 20.165 33.8465 20.645C34.1065 21.115 34.4565 21.48 34.8965 21.74C35.3465 22 35.8265 22.13 36.3365 22.13C36.9265 22.13 37.4215 21.99 37.8215 21.71C38.2215 21.43 38.5465 21.08 38.7965 20.66L39.7565 21.17C39.5965 21.53 39.3515 21.865 39.0215 22.175C38.6915 22.475 38.2965 22.72 37.8365 22.91C37.3865 23.09 36.8865 23.18 36.3365 23.18ZM43.675 23L40.915 14.96H42.19L44.47 21.995H44.02L46.165 14.96H47.29L49.435 21.995H48.985L51.28 14.96H52.54L49.78 23H48.655L46.57 16.115H46.885L44.8 23H43.675ZM58.732 23.18C58.222 23.18 57.767 23.085 57.367 22.895C56.967 22.695 56.652 22.425 56.422 22.085C56.192 21.745 56.077 21.355 56.077 20.915C56.077 20.495 56.167 20.115 56.347 19.775C56.527 19.425 56.807 19.13 57.187 18.89C57.567 18.65 58.052 18.48 58.642 18.38L61.792 17.855V18.875L58.912 19.355C58.332 19.455 57.912 19.64 57.652 19.91C57.402 20.18 57.277 20.5 57.277 20.87C57.277 21.23 57.417 21.535 57.697 21.785C57.987 22.035 58.357 22.16 58.807 22.16C59.357 22.16 59.837 22.045 60.247 21.815C60.657 21.575 60.977 21.255 61.207 20.855C61.437 20.455 61.552 20.01 61.552 19.52V17.48C61.552 17 61.377 16.61 61.027 16.31C60.677 16.01 60.222 15.86 59.662 15.86C59.172 15.86 58.742 15.985 58.372 16.235C58.002 16.475 57.727 16.79 57.547 17.18L56.527 16.625C56.677 16.285 56.912 15.975 57.232 15.695C57.562 15.415 57.937 15.195 58.357 15.035C58.777 14.865 59.212 14.78 59.662 14.78C60.252 14.78 60.772 14.895 61.222 15.125C61.682 15.355 62.037 15.675 62.287 16.085C62.547 16.485 62.677 16.95 62.677 17.48V23H61.552V21.395L61.717 21.56C61.577 21.86 61.357 22.135 61.057 22.385C60.767 22.625 60.422 22.82 60.022 22.97C59.632 23.11 59.202 23.18 58.732 23.18ZM64.9909 23V11.645H66.1159V23H64.9909ZM68.4187 23V11.645H69.5437V23H68.4187Z" fill="white" fill-opacity="0.9"/>
</g>
<defs>
<filter id="filter0_i_2111_3128" x="-3" y="-4" width="92" height="41" filterUnits="userSpaceOnUse" color-interpolation-filters="sRGB">
<feFlood flood-opacity="0" result="BackgroundImageFix"/>
<feBlend mode="normal" in="SourceGraphic" in2="BackgroundImageFix" result="shape"/>
<feColorMatrix in="SourceAlpha" type="matrix" values="0 0 0 0 0 0 0 0 0 0 0 0 0 0 0 0 0 0 127 0" result="hardAlpha"/>
<feOffset dx="-3" dy="-4"/>
<feGaussianBlur stdDeviation="3.5"/>
<feComposite in2="hardAlpha" operator="arithmetic" k2="-1" k3="1"/>
<feColorMatrix type="matrix" values="0 0 0 0 1 0 0 0 0 1 0 0 0 0 1 0 0 0 0.15 0"/>
<feBlend mode="normal" in2="shape" result="effect1_innerShadow_2111_3128"/>
</filter>
<radialGradient id="paint0_radial_2111_3128" cx="0" cy="0" r="1" gradientUnits="userSpaceOnUse" gradientTransform="translate(28.4508 7.27869) rotate(31.6165) scale(44.5461 42.8769)">
<stop stop-color="white"/>
<stop offset="0.697917" stop-color="white" stop-opacity="0"/>
<stop offset="1" stop-color="white" stop-opacity="0"/>
</radialGradient>
</defs>
</svg>
